<?xml version="1.0" encoding="utf-8"?>
<!-- Generator: Adobe Illustrator 26.1.0, SVG Export Plug-In . SVG Version: 6.00 Build 0)  -->
<svg version="1.1" id="Capa_1" xmlns="http://www.w3.org/2000/svg" xmlns:xlink="http://www.w3.org/1999/xlink" x="0px" y="0px"
	 viewBox="0 0 200 200" style="enable-background:new 0 0 200 200;" xml:space="preserve">
<style type="text/css">
	.st0{fill:#37BBED;}
</style>
<g>
	<path class="st0" d="M99.89,181.38c-20.24,0-40.47,0-60.71,0c-12.1,0-20.56-8.42-20.56-20.46c-0.01-40.61-0.01-81.23,0-121.84
		c0-11.94,8.46-20.45,20.35-20.45c40.69-0.01,81.38-0.01,122.08,0c11.8,0,20.34,8.49,20.34,20.24c0.01,40.76,0.01,81.52,0,122.28
		c0,11.74-8.55,20.23-20.35,20.24C140.65,181.38,120.27,181.38,99.89,181.38z M24.71,99.88c0,20.23,0,40.47,0,60.7
		c0,9.01,5.66,14.69,14.63,14.69c40.4,0.01,80.8,0.01,121.2,0c9.14,0,14.75-5.62,14.75-14.79c0-40.32,0-80.64,0-120.97
		c0-9.17-5.6-14.8-14.74-14.8c-40.33,0-80.66,0-120.98,0c-9.28,0-14.86,5.59-14.86,14.9C24.7,59.71,24.71,79.8,24.71,99.88z"/>
	<path class="st0" d="M145.87,96.95c4.13,0,8.18-0.01,12.24,0c2.56,0.01,3.86,1.07,3.83,3.09c-0.03,1.98-1.34,2.99-3.93,3
		c-3.98,0.01-7.97,0-12.1,0c-2.21,7.02-6.87,11.32-14.38,11.19c-7.2-0.12-11.72-4.31-13.8-11.19c-0.96,0-1.82,0-2.69,0
		c-24.06,0-48.13,0-72.19,0c-0.65,0-1.31,0.05-1.96-0.02c-1.76-0.19-2.77-1.18-2.84-2.97c-0.07-1.74,1.09-2.94,2.95-3.09
		c0.65-0.05,1.3-0.02,1.96-0.02c23.99,0,47.98,0,71.98,0c0.87,0,1.74,0,2.75,0c2.31-7.2,7.1-11.5,14.82-11.18
		C139.5,86.07,143.87,90.23,145.87,96.95z M131.94,108.2c4.4-0.06,8.16-3.92,8.07-8.31c-0.09-4.44-3.9-8.16-8.29-8.09
		c-4.44,0.08-8.16,3.91-8.07,8.3C123.73,104.56,127.52,108.26,131.94,108.2z"/>
	<path class="st0" d="M93.29,140.55c-2.14,6.63-6.3,10.84-13.29,11.18c-7.81,0.37-12.54-3.91-14.96-11.18c-7.35,0-14.66,0-21.98,0
		c-0.8,0-1.76,0.25-2.35-0.1c-1-0.61-2.15-1.46-2.53-2.48c-0.53-1.41,0.3-2.72,1.82-3.22c0.8-0.26,1.7-0.3,2.56-0.31
		c6.96-0.02,13.92-0.03,20.88,0c1.1,0,1.78-0.12,2.24-1.4c2.17-6.1,7.33-9.78,13.47-9.81c6.18-0.03,11.34,3.72,13.62,9.92
		c0.15,0.4,0.32,0.78,0.53,1.28c0.87,0,1.73,0,2.6,0c20.44,0,40.88,0,61.32,0.01c0.79,0,1.62-0.03,2.37,0.16
		c1.6,0.4,2.47,1.5,2.34,3.18c-0.13,1.68-1.11,2.63-2.81,2.74c-0.72,0.05-1.45,0.03-2.17,0.03c-20.3,0-40.59,0-60.89,0
		C95.19,140.55,94.32,140.55,93.29,140.55z M79.17,129.43c-4.51,0-8.16,3.65-8.13,8.14c0.02,4.49,3.69,8.12,8.18,8.12
		c4.45,0,8.17-3.74,8.15-8.17C87.34,133.01,83.71,129.43,79.17,129.43z"/>
	<path class="st0" d="M81.94,65.57c-1.3,4.44-3.74,7.78-7.87,9.74c-7.52,3.57-16.44,0.09-19.36-7.71c-0.63-1.67-1.43-2.14-3.11-2.07
		c-3.26,0.13-6.52,0.07-9.79,0.03c-2.47-0.03-3.84-1.24-3.77-3.22c0.07-1.88,1.34-2.87,3.81-2.88c3.48-0.02,6.96-0.05,10.44,0.02
		c1.19,0.02,1.72-0.33,2.15-1.53c2.16-6.06,7.35-9.72,13.52-9.72c6.16,0,11.29,3.61,13.46,9.76c0.55,1.55,1.45,1.48,2.62,1.48
		c24.15-0.01,48.29-0.01,72.44-0.01c0.73,0,1.45-0.02,2.18,0.01c2.08,0.08,3.27,1.17,3.29,2.96c0.01,1.76-1.2,2.97-3.21,3.13
		c-0.65,0.05-1.3,0.02-1.96,0.02c-24.07,0-48.15,0-72.22,0C83.7,65.57,82.84,65.57,81.94,65.57z M59.84,62.54
		c0.04,4.53,3.65,8.09,8.18,8.06c4.51-0.03,8.08-3.68,8.04-8.22c-0.04-4.49-3.71-8.11-8.21-8.07
		C63.34,54.35,59.81,57.98,59.84,62.54z"/>
</g>
</svg>
