<?xml version="1.0" encoding="utf-8"?>
<!-- Generator: Adobe Illustrator 26.3.1, SVG Export Plug-In . SVG Version: 6.00 Build 0)  -->
<svg version="1.1" id="Capa_1" xmlns="http://www.w3.org/2000/svg" xmlns:xlink="http://www.w3.org/1999/xlink" x="0px" y="0px"
	 viewBox="0 0 200 200" style="enable-background:new 0 0 200 200;" xml:space="preserve">
<style type="text/css">
	.st0{fill:#37BBED;}
</style>
<g>
	<path class="st0" d="M53.8,136.8c2.4-0.8,4.7-1.8,7.1-2.5c8.8-2.5,17.5-1.8,25.6,2.4c5.1,2.7,10.4,4,16.2,4
		c5.2,0,10.4,0.3,15.5,0.4c6.8,0.1,12.1,3,15.7,8.8c0.1,0.2,0.3,0.4,0.5,0.6c3-1.4,5.9-2.8,8.9-4.2c4.5-2.1,9-4.3,13.6-6.4
		c6.4-2.9,13.9-0.7,17.7,5.1c1.4,2.1,1.1,3.6-1,4.9c-16.3,10.6-32.6,21.3-49.1,31.7c-5.9,3.7-12.9,4.8-19.8,3.7
		c-5.9-0.9-11.7-2.7-17.5-4.3c-7-1.9-13.9-3.9-20.9-5.8c-3-0.9-5.8-0.6-8.5,1c-0.6,0.4-1.3,0.7-1.9,1c-1.9,0.9-3.7,1.7-3.5,4.5
		c0.1,1.4-1.1,2.3-2.6,2.3c-7.4-0.1-14.8-0.3-22.2-0.6c-2.1-0.1-3-1.3-2.9-3.5c0.2-8.9,0.5-17.7,0.7-26.6c0.2-6.9,0.4-13.7,0.6-20.6
		c0.1-3,1-3.9,3.9-3.8c6.7,0.2,13.4,0.3,20,0.5c3.2,0.1,4.1,1,3.9,4.2C53.8,134.7,53.8,135.7,53.8,136.8z M130.4,156.4
		c-0.7-5.1-5.5-9.4-10.8-9.7c-3.6-0.2-7.1-0.2-10.7-0.3c-4.1-0.1-8.1-0.2-12.2-0.4c-4.7-0.3-8.7-2.4-12.9-4.4
		c-9.9-4.6-19.6-4.1-29.1,1.3c-1,0.5-1.3,1.2-1.3,2.2c-0.2,8.7-0.5,17.5-0.7,26.2c0,0.2,0.1,0.5,0.1,0.9c0.6-0.3,1.1-0.5,1.6-0.8
		c4.5-2.7,9.2-3,14.1-1.5c5.6,1.7,11.3,3.3,17,4.8c6.2,1.7,12.3,3.6,18.6,4.8c6.3,1.1,12.7,0.2,18.2-3.3
		c13.7-8.7,27.2-17.6,40.8-26.4c1.7-1.1,3.4-2.2,5.1-3.4c-2.5-2.5-6.1-3-9.7-1.4c-6.9,3.3-13.9,6.6-20.8,9.8
		c-1.2,0.6-1.7,1.1-1.5,2.6c0.5,3.4-0.6,4.6-4.1,4.6c-10-0.2-19.9-0.5-29.9-0.8c-0.9,0-1.9,0-2.8-0.2c-1.4-0.3-2.1-1.3-2.1-2.6
		c0-1.3,0.7-2.3,1.9-2.6c0.6-0.2,1.3-0.1,2-0.1c9,0.2,18,0.5,27.1,0.7C129.1,156.5,129.8,156.4,130.4,156.4z M31.5,134.9
		c-0.4,14.3-0.8,28.6-1.2,43.1c5.6,0,11.1,0,16.6,0c0.4-14.2,0.8-28.5,1.2-43.1C42.5,134.9,37.1,134.9,31.5,134.9z"/>
	<path class="st0" d="M101.8,133.1c-22.5,0-40.7-18.2-40.8-40.7c0-22.4,18.2-40.7,40.7-40.7c22.5,0,40.7,18.2,40.8,40.7
		C142.5,114.9,124.3,133.1,101.8,133.1z M101.7,127.5c19.3,0,35.1-15.7,35.1-35c0-19.4-15.6-35.1-35-35.1
		C82.5,57.3,66.7,73,66.7,92.5C66.7,111.8,82.4,127.5,101.7,127.5z"/>
	<path class="st0" d="M104.5,30.5c0,4.3,0,8.7,0,13c0,2.2-1.8,3.5-3.7,2.9C99.6,46,99,45.1,99,43.8c0-8.9,0-17.7,0-26.6
		c0-1.8,1.3-2.9,2.8-2.8c1.6,0,2.7,1.2,2.7,3C104.6,21.7,104.5,26.1,104.5,30.5z"/>
	<path class="st0" d="M125.6,37.5c0,2,0,4,0,6c0,1.9-1.1,3.1-2.7,3.1c-1.6,0-2.8-1.2-2.8-3c0-4.1,0-8.1,0-12.2c0-1.9,1.2-3.1,2.8-3
		c1.6,0,2.7,1.2,2.7,3.1C125.6,33.5,125.6,35.5,125.6,37.5z"/>
	<path class="st0" d="M83.5,37.4c0,2.1,0,4.1,0,6.2c0,1.9-1.2,3.1-2.9,3c-1.6,0-2.7-1.2-2.7-3c0-4.1,0-8.1,0-12.2
		c0-1.9,1.2-3.1,2.8-3c1.6,0,2.6,1.2,2.7,3C83.5,33.4,83.5,35.4,83.5,37.4z"/>
	<path class="st0" d="M95.4,83c0,3.2,2.2,5.8,5.4,6.3c1.3,0.2,2.7,0.2,4,0.5c5,1.3,8.6,5.6,9,10.8c0.4,4.9-2.5,9.9-7.3,11.7
		c-1.8,0.7-2.5,1.5-2.3,3.4c0.1,1.6-1,2.7-2.5,2.8c-1.4,0.1-2.4-0.5-2.9-1.8c-0.2-0.6-0.2-1.2-0.2-1.8c0.1-1.3-0.3-2-1.6-2.6
		c-4.4-1.9-6.7-5.4-7.2-10.1c-0.2-2.1,0.8-3.5,2.5-3.7c1.7-0.2,2.9,1.1,3.1,3.2c0.3,3.6,3,6,6.6,5.9c3.2-0.1,5.9-2.7,6.1-5.9
		c0.2-3.4-2.1-6.3-5.7-6.7c-2.5-0.3-5-0.5-7.1-2c-3.9-2.6-5.8-6.3-5.5-10.9c0.3-4.8,2.9-8.3,7.3-10.2c1.2-0.5,1.7-1.1,1.5-2.3
		c-0.1-0.5,0-1.1,0.1-1.7c0.3-1.4,1.3-2.1,2.6-2.1c1.4,0,2.4,0.8,2.7,2.2c0.1,0.4,0.1,0.9,0.1,1.3c-0.2,1.4,0.4,1.9,1.7,2.3
		c4.8,1.8,7.3,5.4,7.9,10.4c0.2,2-0.9,3.5-2.6,3.6c-1.6,0.1-2.8-1.1-3-3.1c-0.3-3.6-3.1-6.2-6.5-6.1C98.1,76.8,95.4,79.6,95.4,83z"
		/>
</g>
</svg>
