<?xml version="1.0" encoding="utf-8"?>
<!-- Generator: Adobe Illustrator 26.3.1, SVG Export Plug-In . SVG Version: 6.00 Build 0)  -->
<svg version="1.1" id="Capa_1" xmlns="http://www.w3.org/2000/svg" xmlns:xlink="http://www.w3.org/1999/xlink" x="0px" y="0px"
	 viewBox="0 0 200 200" style="enable-background:new 0 0 200 200;" xml:space="preserve">
<style type="text/css">
	.st0{fill:#37BBED;}
	.st1{opacity:0.9;fill:#37BBED;}
	.st2{opacity:0.8;fill:#37BBED;}
	.st3{opacity:0.7;fill:#37BBED;}
	.st4{opacity:0.6;fill:#37BBED;}
	.st5{opacity:0.5;fill:#37BBED;}
	.st6{opacity:0.4;fill:#37BBED;}
	.st7{opacity:0.3;fill:#37BBED;}
	.st8{opacity:0.2;fill:#37BBED;}
</style>
<g>
	<path class="st0" d="M82.3,161.2c0-4.2,0-8.1,0-12.2c-0.7,0-1.4,0-2.1,0c-16.6,0-33.2,0-49.8,0c-8.1,0-12.9-5-12.9-13.4
		c0-36,0-71.9,0-107.9c0-8.3,4.9-13.3,12.8-13.3c46.5,0,92.9,0,139.4,0c8.1,0,13,5,13,13.4c0,36,0,71.9,0,107.9
		c0,8.4-4.9,13.4-13,13.4c-16.5,0-32.9,0-49.4,0c-0.7,0-1.5,0-2.3,0c0,4,0,8,0,12.2c0.6,0,1.3,0,1.9,0c6.9,0,13.9,0,20.8,0
		c7.1,0,12.5,5.2,12.5,12.2c0,7-5.3,12.3-12.4,12.3c-27.2,0-54.3,0-81.5,0c-7,0-12.3-5.3-12.3-12.2c0-7,5.3-12.3,12.4-12.3
		c6.9,0,13.9,0,20.8,0C80.8,161.2,81.4,161.2,82.3,161.2z M23.3,118.2c51.2,0,102.3,0,153.4,0c0-0.8,0-1.5,0-2.2
		c0-29.4,0-58.8,0-88.1c0-5.2-2.2-7.4-7.2-7.4c-46.3,0-92.6,0-139,0c-5,0-7.2,2.2-7.2,7.4c0,29.4,0,58.8,0,88.1
		C23.3,116.7,23.3,117.4,23.3,118.2z M23.3,124.5c0,3.7,0,7.2,0,10.7c0,5.4,2.1,7.6,7.4,7.6c46.2,0,92.4,0,138.6,0
		c0.6,0,1.1,0,1.7,0c2.8-0.1,5.4-2.1,5.5-4.9c0.3-4.4,0.1-8.9,0.1-13.3C125.5,124.5,74.5,124.5,23.3,124.5z M100.1,167.3
		c-4.6,0-9.2,0-13.8,0c-9.2,0-18.3,0-27.5,0c-3.1,0-5.6,2.4-5.9,5.4c-0.3,3.1,1.7,6,4.6,6.6c0.8,0.2,1.6,0.2,2.4,0.2
		c26.8,0,53.6,0,80.3,0c0.5,0,1,0,1.5,0c2.5-0.3,4.2-1.6,5.1-4c1.5-4.1-1.4-8.2-5.8-8.2C127.3,167.3,113.7,167.3,100.1,167.3z
		 M88.4,149c0,4,0,8,0,12.1c7.8,0,15.6,0,23.3,0c0-4.1,0-8.1,0-12.1C103.8,149,96.2,149,88.4,149z"/>
	<path class="st0" d="M100,130.6c2.8,0,5.5,0,8.3,0c2.2,0,3.5,1.1,3.5,3c0,1.9-1.3,3.1-3.4,3.1c-5.6,0-11.2,0-16.7,0
		c-2.2,0-3.4-1.2-3.4-3.1c0-1.9,1.3-3,3.5-3C94.5,130.6,97.2,130.6,100,130.6z"/>
</g>
<g>
	<circle class="st0" cx="101.5" cy="52.6" r="6.5"/>
	<circle class="st1" cx="86.3" cy="58.1" r="6"/>
	<circle class="st2" cx="80" cy="71.6" r="5.8"/>
	<circle class="st3" cx="84.4" cy="85.2" r="5.4"/>
	<circle class="st4" cx="96.8" cy="92.6" r="5.2"/>
	<circle class="st5" cx="110.5" cy="90.7" r="4.9"/>
	<circle class="st6" cx="119.8" cy="81.1" r="4.7"/>
	<circle class="st7" cx="121.4" cy="68.6" r="4.4"/>
	<circle class="st8" cx="115.4" cy="57.8" r="3.9"/>
</g>
</svg>
