<?xml version="1.0" encoding="utf-8"?>
<!-- Generator: Adobe Illustrator 26.1.0, SVG Export Plug-In . SVG Version: 6.00 Build 0)  -->
<svg version="1.1" id="Capa_1" xmlns="http://www.w3.org/2000/svg" xmlns:xlink="http://www.w3.org/1999/xlink" x="0px" y="0px"
	 viewBox="0 0 200 200" style="enable-background:new 0 0 200 200;" xml:space="preserve">
<style type="text/css">
	.st0{fill:#37BBED;}
</style>
<g>
	<path class="st0" d="M44.67,140.15c-3.38-2.89-5.72-6.13-7.32-9.93c-0.17-0.41-1.1-0.67-1.7-0.7c-5.13-0.23-9.27-3.48-10.35-8.45
		c-0.94-4.35,0.45-8.02,3.96-10.75c0.85-0.66,1.07-1.3,1.08-2.28c0.04-4.54-0.11-9.09,0.29-13.6c0.86-9.7,9.82-18.13,19.53-18.43
		c6.32-0.2,12.65-0.21,18.96-0.02c10.86,0.32,20,9.77,20.16,20.65c0.06,3.84-0.03,7.68,0.06,11.51c0.02,0.67,0.41,1.54,0.92,1.96
		c3.79,3.06,5.3,7.61,3.85,12c-1.43,4.34-5.42,7.26-10.21,7.36c-0.99,0.02-1.5,0.26-1.9,1.25c-1.45,3.67-3.83,6.71-7,9.46
		c11.46,1.24,19.67,6.87,24.98,17.06c5.28-10.13,13.5-15.83,25.03-17.06c-3.54-3.02-6-6.51-7.55-10.65
		c-3.17,0.06-6.06-0.6-8.45-2.74c-5.07-4.53-4.87-12.23,0.5-16.39c0.92-0.71,1.21-1.41,1.22-2.54c0.03-4.7-0.19-9.43,0.35-14.08
		c1.11-9.55,9.98-17.5,19.6-17.78c6.32-0.19,12.65-0.19,18.96,0c9.93,0.3,18.85,8.66,19.73,18.57c0.4,4.45,0.24,8.96,0.28,13.44
		c0.01,0.97,0.2,1.64,1.06,2.29c3.78,2.87,5.17,7.51,3.71,11.84c-1.46,4.33-5.36,7.22-10.06,7.32c-1.15,0.02-1.68,0.37-2.11,1.45
		c-1.42,3.57-3.76,6.52-6.83,9.17c2.01,0.39,3.84,0.66,5.62,1.11c12.83,3.28,21.93,15.03,21.98,28.29c0.01,3.35,0.01,6.7,0,10.05
		c0,2.61-0.88,3.5-3.49,3.5c-31.99,0-63.98,0-95.97,0c-20.91,0-41.82,0-62.74,0c-3.07,0-3.87-0.76-3.83-3.8
		c0.07-4.59-0.1-9.2,0.36-13.76c1.25-12.47,12.43-23.52,24.92-24.96C42.95,140.44,43.64,140.31,44.67,140.15z M177.41,177.55
		c0-3.89,0.46-7.73-0.09-11.41c-1.79-12.02-11.5-20.3-23.6-20.62c-1.06-0.03-1.79,0.26-2.47,1.13c-2.81,3.63-5.69,7.2-8.59,10.77
		c-1.7,2.09-3.35,2.05-5.04-0.05c-2.91-3.62-5.79-7.27-8.75-10.85c-0.41-0.5-1.21-0.94-1.83-0.95c-3.88-0.05-7.6,0.77-11.08,2.55
		c-10.28,5.25-15.61,17.18-13.1,29.43C127.68,177.55,152.51,177.55,177.41,177.55z M97.33,177.56c0-2.85,0.06-5.55-0.01-8.23
		c-0.35-13.33-10.83-23.66-24.14-23.75c-0.72,0-1.66,0.46-2.12,1.01c-2.91,3.48-5.7,7.06-8.55,10.59c-1.89,2.35-3.47,2.38-5.35,0.05
		c-2.85-3.53-5.63-7.11-8.53-10.6c-0.47-0.56-1.43-1.09-2.12-1.04c-2.35,0.19-4.8,0.3-7,1.04c-15.2,5.15-18.44,17.61-16.92,30.92
		C47.42,177.56,72.25,177.56,97.33,177.56z M83.82,107.95c0-4,0.13-7.93-0.03-11.85c-0.29-7.26-6.25-13.97-13.5-14.52
		c-6.55-0.5-13.18-0.55-19.74-0.18c-7.15,0.4-12.66,5.24-14.24,11.93c-0.54,2.27-0.45,4.71-0.53,7.07
		c-0.08,2.52-0.02,5.04-0.02,7.59c4.97,0,9.74,0.33,14.45-0.08c7.41-0.64,12.13-6.15,12.24-13.61c0.01-0.74,0-1.48,0-2.27
		c1.91,0,3.6,0,5.43,0c0,3.56-0.02,7.01,0,10.45c0.02,2.89,1.7,5.2,4.52,5.41C76.15,108.16,79.93,107.95,83.82,107.95z
		 M116.28,107.9c4.95,0,9.88,0.35,14.74-0.09c6.27-0.56,10.63-5.05,11.65-11.24c0.24-1.47,0.16-2.99,0.23-4.55c1.79,0,3.48,0,5.35,0
		c0,3.49-0.02,6.88,0.01,10.27c0.03,3.58,2.15,5.71,5.76,5.77c2.65,0.04,5.29,0.01,7.94,0.01c0.73,0,1.46,0,2.25,0
		c0-4.04,0.06-7.83-0.01-11.6c-0.15-7.32-6.19-14.32-13.52-14.88c-6.55-0.5-13.18-0.57-19.74-0.19c-7.66,0.44-13.68,6-14.56,13.31
		C115.86,99,116.28,103.42,116.28,107.9z M143.67,106.83c-3.19,3.57-6.94,5.77-11.43,6.32c-2.93,0.35-5.93,0.16-8.9,0.21
		c-0.62,0.01-1.24,0-1.89,0c0,3.25-0.15,6.23,0.03,9.19c0.84,13.92,16.05,22.04,28.11,15.06c7.61-4.41,11.52-14.76,9.04-24.3
		C152.68,113.73,146.83,113.58,143.67,106.83z M78.59,113.65c-3.16-0.31-6.11-0.32-8.91-0.95c-2.97-0.67-4.92-2.95-6.31-5.66
		c-0.24,0.16-0.39,0.23-0.49,0.34c-4.1,4.25-9.09,6.23-14.99,5.99c-2.2-0.09-4.4-0.01-6.65-0.01c0,3.45-0.22,6.75,0.04,10
		c0.72,8.87,7.62,15.71,16.98,16.72c7.75,0.83,15.82-3.73,19.05-11.95C79.17,123.38,78.4,118.45,78.59,113.65z M116,113.42
		c-3.6,0.54-5.71,3.09-5.26,6.05c0.42,2.77,2.82,4.74,5.26,4.4C116,120.41,116,116.98,116,113.42z M83.98,123.96
		c2.93,0.03,5.26-2.23,5.29-5.15c0.04-2.9-2.18-5.17-5.29-5.27C83.98,116.98,83.98,120.41,83.98,123.96z M35.68,113.56
		c-3.05-0.02-5.44,2.41-5.33,5.33c0.11,2.98,2.56,5.27,5.33,4.98C35.68,120.43,35.68,117,35.68,113.56z M164.29,113.5
		c0,3.55,0,6.99,0,10.42c2.84,0.14,5.13-2,5.33-4.93C169.82,116.13,167.58,113.74,164.29,113.5z M64.86,145.63
		c-3.51,0-6.64,0-10.07,0c1.76,2.2,3.35,4.19,5.04,6.3C61.51,149.83,63.07,147.87,64.86,145.63z M145.17,145.67
		c-3.42,0-6.58,0-10.01,0c1.74,2.18,3.31,4.14,5,6.26C141.84,149.84,143.43,147.84,145.17,145.67z"/>
	<path class="st0" d="M73.73,30.29c-2.93,0-5.62,0-8.42,0c0-1.75,0-3.39,0-5.27c1.11,0,2.23,0,3.34,0c4.11,0,8.21-0.01,12.32,0.01
		c1.86,0.01,2.89,0.89,2.91,2.72c0.06,5.13,0.02,10.27,0,15.4c0,0.15-0.1,0.3-0.19,0.54c-1.63,0-3.28,0-5.06,0
		c0-3.39,0-6.72,0-10.18c-5.26,5.48-7.71,18.01-2.36,28.04c5.74,10.76,19.04,17.7,33.44,12.54c0.63,1.57,1.26,3.16,1.88,4.73
		c-7.95,3.97-22.54,3.64-33.17-5.85C68.86,64.42,62.78,46.76,73.73,30.29z"/>
	<path class="st0" d="M90.25,24.12c-0.66-1.68-1.28-3.27-1.89-4.84c10.1-4.46,24.85-2.75,34.77,7.51
		c9.58,9.91,12.8,26.61,3.11,41.03c2.89,0,5.64,0,8.47,0c0,1.87,0,3.51,0,5.37c-0.7,0-1.33,0-1.96,0c-4.43,0-8.86,0.01-13.29-0.01
		c-2.47-0.01-3.38-0.86-3.39-3.27c-0.03-5.07-0.01-10.14-0.01-15.32c1.79,0,3.44,0,5.25,0c0,3.28,0,6.61,0,10.09
		c5.16-5.24,7.75-17.69,2.55-27.73C117.94,25.54,104.36,19.07,90.25,24.12z"/>
</g>
</svg>
