<?xml version="1.0" encoding="utf-8"?>
<!-- Generator: Adobe Illustrator 26.1.0, SVG Export Plug-In . SVG Version: 6.00 Build 0)  -->
<svg version="1.1" id="Capa_1" xmlns="http://www.w3.org/2000/svg" xmlns:xlink="http://www.w3.org/1999/xlink" x="0px" y="0px"
	 viewBox="0 0 200 200" style="enable-background:new 0 0 200 200;" xml:space="preserve">
<style type="text/css">
	.st0{fill:#37BBED;}
</style>
<g>
	<path class="st0" d="M120.38,145.78c4.56,0,9.24,0,13.92,0c1.62,0,3.23-0.02,4.85,0.01c4.1,0.08,6.68,2.48,6.9,6.59
		c0.13,2.34,0.08,4.68,0.02,7.02c-0.05,1.9-1,2.89-2.54,2.89c-1.57,0-2.43-0.98-2.47-2.91c-0.04-2.06,0.01-4.13-0.02-6.19
		c-0.02-1.94-0.45-2.37-2.36-2.37c-25.82,0-51.64-0.01-77.46,0c-1.81,0-2.27,0.44-2.27,2.28c-0.02,8.42-0.02,16.84,0,25.26
		c0,1.78,0.53,2.27,2.32,2.27c25.82,0.01,51.64,0.01,77.46,0c1.78,0,2.28-0.49,2.31-2.28c0.03-2.12-0.02-4.24,0.02-6.36
		c0.04-1.86,1-2.93,2.5-2.92c1.4,0.01,2.48,1.08,2.5,2.8c0.03,2.78,0.09,5.59-0.2,8.35c-0.32,3.09-2.96,5.27-6.06,5.43
		c-0.5,0.03-1,0.01-1.51,0.01c-25.54,0-51.08,0-76.62,0c-5.25,0-7.76-2.51-7.77-7.8c-0.01-8.14,0.07-16.28-0.03-24.42
		c-0.06-4.67,2.74-7.86,7.74-7.71c6.01,0.19,12.03,0.04,18.23,0.04c1.77-8.24,3.53-16.42,5.23-24.33c-3.19-1.88-6.14-3.65-9.14-5.34
		c-0.54-0.3-1.27-0.32-1.92-0.34c-4.73-0.15-9.5,0.07-14.19-0.44c-14.95-1.65-28.07-14.56-30.11-29.38
		c-0.38-2.75-0.58-5.55-0.6-8.32C29.05,65.75,29.08,53.87,29.09,42c0.01-4.89,2.43-8.31,6.7-9.38c1.01-0.25,2.1-0.25,3.15-0.26
		c5.91-0.02,11.82-0.01,17.73-0.01c0.55,0,1.1,0,1.65,0c0-0.04,0-0.08,0-0.12c-1.81-0.14-3.65-0.14-5.44-0.46
		c-3.01-0.53-4.97-2.87-5.14-5.94c-0.09-1.61-0.09-3.23-0.04-4.85c0.14-4.05,2.79-6.62,6.84-6.62c10.54-0.02,21.08-0.01,31.62-0.01
		c2.17,0,4.35,0,6.52,0c2.55,0,3.73,0.82,3.7,2.56c-0.03,1.68-1.18,2.46-3.63,2.46c-12.38,0-24.76,0-37.14,0
		c-2.71,0-2.9,0.17-2.89,2.81c0.03,4.88-0.69,4.8,4.78,4.8c28.83-0.02,57.66-0.01,86.49-0.01c3.12,0,3.23-0.12,3.24-3.16
		c0.01-4.64,0.36-4.46-4.44-4.45c-11.93,0.02-23.87,0.01-35.8,0.01c-0.56,0-1.13,0.05-1.67-0.05c-1.32-0.24-2.11-1.07-2.13-2.4
		c-0.02-1.41,0.79-2.28,2.18-2.53c0.49-0.09,1-0.04,1.5-0.04c12.66,0,25.32,0,37.98,0c4.87,0,7.39,2.51,7.44,7.4
		c0.01,1.06,0.02,2.12,0,3.18c-0.11,4.39-2.72,7.01-7.12,7.15c-1.16,0.04-2.33,0.01-3.49,0.27c3.03,0,6.05,0,9.08,0
		c3.57,0,7.14-0.02,10.71,0.01c5.77,0.05,9.39,3.63,9.41,9.41c0.03,12.6,0.08,25.21-0.01,37.81c-0.1,15.93-9.34,28.9-24.33,34.29
		c-3.8,1.37-7.76,1.93-11.81,1.9c-2.96-0.03-5.91-0.06-8.87,0.03c-0.83,0.03-1.71,0.35-2.46,0.75c-2.51,1.31-4.99,2.69-7.43,4.12
		c-0.43,0.26-0.97,0.99-0.88,1.38c1.64,7.84,3.36,15.66,5.07,23.48C120.18,145.57,120.23,145.61,120.38,145.78z M63.88,32.07
		c0,0.59,0,1.02,0,1.46c0,16.28-0.03,32.55,0.01,48.83c0.02,8.58,2.73,16.25,8.03,23.04c8.97,11.51,25.89,16.47,39.62,11.51
		c15.2-5.49,24.53-18.67,24.56-34.86c0.04-16.11,0.01-32.22,0.01-48.33c0-0.53,0-1.07,0-1.65C111.96,32.07,88.05,32.07,63.88,32.07z
		 M114.95,145.68c-1.66-7.73-3.3-15.34-4.97-23.07c-6.77,1.62-13.32,1.56-20,0.02c-1.67,7.76-3.3,15.34-4.96,23.05
		C95.07,145.68,104.89,145.68,114.95,145.68z M63.88,102.48c-0.21-0.5-0.32-0.81-0.47-1.09c-3.33-6.47-4.66-13.37-4.6-20.62
		c0.1-11.14,0.03-22.29,0.03-33.44c0-0.59,0-1.18,0-1.82l-0.09-5.07c0-1.08,0-1.99,0-3.05c-0.63,0-1.18,0-1.72,0
		c-5.97,0-11.93,0-17.9,0c-3.72,0-4.99,1.28-5,5.02c-0.01,7.3-0.02,14.61,0.01,21.91c0.02,5.96-0.11,11.94,0.21,17.89
		c0.89,16.35,15.48,30.51,35.21,28.35 M130.52,110.95c3.5-0.26,6.94-0.18,10.25-0.81c14.67-2.78,24.81-14.93,25.05-30.19
		c0.2-12.71,0.06-25.43,0.03-38.14c-0.01-3.01-1.44-4.41-4.41-4.42c-6.36-0.02-12.71-0.01-19.07,0c-0.37,0-0.74,0.07-1.16,0.12
		c0,0.97,0,1.85,0,2.93l-0.06,5.11c0,0.69,0,1.29,0,1.89c0,11.59,0,23.18,0,34.77c0,4.59-0.58,9.1-2.2,13.43
		c-0.85,2.27-1.79,4.51-2.69,6.78"/>
	<path class="st0" d="M99.98,163.22c8.08,0,16.15-0.04,24.22,0.05c0.94,0.01,2.12,0.45,2.74,1.11c1.15,1.21,0.37,3.19-1.32,3.69
		c-0.62,0.18-1.32,0.18-1.98,0.18c-15.76,0.01-31.52,0.01-47.28,0.01c-0.33,0-0.67,0.01-1-0.01c-1.79-0.1-2.87-1.13-2.81-2.65
		c0.06-1.43,1.13-2.37,2.86-2.37C83.6,163.22,91.79,163.22,99.98,163.22z"/>
	<path class="st0" d="M122.83,57.98c-0.36,0.53-0.75,1.34-1.35,1.93c-2.52,2.53-5.07,5.02-7.67,7.46c-0.74,0.69-0.97,1.35-0.79,2.33
		c0.65,3.56,1.2,7.13,1.86,10.68c0.23,1.21,0.11,2.24-0.87,3.02c-1,0.79-2.05,0.61-3.12,0.04c-3.19-1.7-6.41-3.34-9.58-5.08
		c-0.93-0.51-1.68-0.53-2.62-0.01c-3.12,1.71-6.3,3.32-9.44,5c-1.11,0.6-2.2,0.9-3.27,0.06c-1.05-0.82-1.09-1.91-0.85-3.17
		c0.66-3.38,1.16-6.8,1.8-10.19c0.23-1.21-0.04-2.05-0.98-2.91c-2.55-2.33-5.05-4.73-7.41-7.24c-0.67-0.71-1.18-1.93-1.12-2.88
		c0.08-1.29,1.28-1.76,2.56-1.93c3.58-0.48,7.15-1.11,10.73-1.56c1.04-0.13,1.54-0.55,1.97-1.45c1.52-3.21,3.13-6.39,4.7-9.58
		c0.54-1.1,1.21-2.04,2.59-2.04c1.38-0.01,2.06,0.92,2.6,2.02c1.54,3.14,3.13,6.27,4.62,9.43c0.47,1,1.02,1.5,2.2,1.63
		c3.64,0.43,7.27,1.06,10.9,1.58C121.8,55.35,122.55,56.22,122.83,57.98z M109.12,76.8c-0.44-2.66-0.67-4.93-1.21-7.13
		c-0.53-2.15,0-3.71,1.63-5.18c1.7-1.54,3.18-3.32,4.85-5.1c-2.5-0.38-4.95-0.86-7.42-1.11c-1.78-0.17-2.81-1.05-3.53-2.6
		c-1.04-2.24-2.18-4.44-3.44-6.98c-0.98,1.94-1.97,3.5-2.56,5.19c-1.11,3.21-3.18,4.69-6.58,4.71c-1.76,0.01-3.52,0.52-5.21,0.8
		c1.75,1.87,3.3,3.7,5.05,5.32c1.43,1.33,1.85,2.74,1.45,4.62c-0.51,2.36-0.82,4.75-1.27,7.45c2.58-1.35,4.86-2.48,7.08-3.72
		c1.4-0.78,2.68-0.78,4.08,0.01C104.26,74.32,106.54,75.45,109.12,76.8z"/>
</g>
</svg>
