<?xml version="1.0" encoding="utf-8"?>
<!-- Generator: Adobe Illustrator 26.1.0, SVG Export Plug-In . SVG Version: 6.00 Build 0)  -->
<svg version="1.1" id="Capa_1" xmlns="http://www.w3.org/2000/svg" xmlns:xlink="http://www.w3.org/1999/xlink" x="0px" y="0px"
	 viewBox="0 0 200 200" style="enable-background:new 0 0 200 200;" xml:space="preserve">
<style type="text/css">
	.st0{fill:#37BBED;}
</style>
<g>
	<path class="st0" d="M117.28,97.36c-0.08,3.19-0.88,5.07-2.35,6.67c-0.57,0.61-1.15,1.21-1.76,1.78c-1.14,1.06-1.36,2.28-0.72,3.69
		c0.26,0.57,0.51,1.14,0.72,1.73c0.54,1.55,1.66,2.14,3.24,2.19c1.56,0.05,3.16,0.01,4.65,0.4c3.31,0.87,5.53,3.67,5.63,7.08
		c0.11,3.91,0.13,7.84,0,11.75c-0.14,4.07-3.4,7.22-7.45,7.48c-0.36,0.02-0.73,0.02-1.1,0.02c-4.12,0.02-4.18,0.1-5.72,3.87
		c-0.62,1.52-0.36,2.72,0.81,3.81c0.5,0.46,0.97,0.95,1.44,1.44c3.38,3.52,3.48,8.11,0.14,11.64c-2.4,2.54-4.89,5.02-7.43,7.42
		c-3.38,3.2-7.79,3.21-11.3,0.16c-0.24-0.21-0.46-0.43-0.68-0.64c-2.91-2.84-2.89-2.8-6.64-1.18c-1.51,0.65-2.11,1.71-2.15,3.28
		c-0.04,1.5,0,3.06-0.37,4.49c-0.88,3.42-3.81,5.72-7.3,5.8c-3.76,0.09-7.53,0.1-11.29,0c-4.24-0.1-7.57-3.49-7.76-7.72
		c-0.01-0.26-0.01-0.52-0.01-0.78c-0.03-4.31-0.18-4.48-4.2-5.94c-1.23-0.45-2.23-0.25-3.16,0.62c-0.91,0.86-1.78,1.78-2.75,2.55
		c-2.95,2.35-7.12,2.41-9.94-0.11c-2.91-2.61-5.72-5.37-8.36-8.26c-3.04-3.33-2.91-7.66,0.06-11.06c0.17-0.2,0.36-0.38,0.54-0.57
		c2.95-3.01,2.98-3.24,1.14-7.04c-0.59-1.22-1.5-1.78-2.84-1.82c-1.51-0.04-3.06,0.02-4.51-0.3c-3.53-0.78-6.01-3.81-6.09-7.4
		c-0.09-3.76-0.09-7.53,0-11.29c0.1-4.22,3.34-7.43,7.58-7.7c0.42-0.03,0.84-0.04,1.25-0.05c3.86-0.03,5.11-0.99,5.77-4.83
		c0.13-0.78-0.34-1.81-0.82-2.53c-0.63-0.94-1.59-1.65-2.33-2.53c-2.47-2.93-2.67-7.19-0.13-10.06c2.73-3.08,5.65-6.03,8.72-8.78
		c3.07-2.75,7.34-2.52,10.44,0.18c0.28,0.24,0.54,0.5,0.8,0.75c2.91,2.87,3.2,2.91,6.93,1.17c1.27-0.59,1.9-1.52,1.93-2.94
		c0.04-1.56-0.01-3.16,0.34-4.66c0.77-3.35,3.66-5.73,7.09-5.83c3.97-0.12,7.94-0.13,11.91,0c3.93,0.13,7.06,3.34,7.33,7.23
		c0.03,0.47,0.06,0.94,0.06,1.41c0.05,4.03,0.12,4.07,3.84,5.6c1.5,0.62,2.7,0.43,3.82-0.75c0.75-0.79,1.55-1.56,2.41-2.24
		c3.14-2.48,7.28-2.48,10.19,0.2c2.92,2.69,5.78,5.47,8.38,8.45C116.41,94.58,116.88,96.51,117.28,97.36z M40.23,107.8
		c-0.73,2.05-1.29,3.82-1.97,5.55c-1.45,3.69-4.27,5.37-8.16,5.43c-0.68,0.01-1.36-0.01-2.04,0.01c-1.89,0.06-2.94,1.01-2.97,2.89
		c-0.06,3.4-0.06,6.79,0,10.19c0.03,1.85,1.11,2.83,2.99,2.92c0.89,0.04,1.78-0.01,2.66,0.02c3.26,0.12,5.67,1.62,7.14,4.53
		c0.54,1.07,0.98,2.19,1.39,3.31c1.13,3.14,0.52,5.95-1.71,8.41c-0.7,0.77-1.5,1.46-2.16,2.27c-0.99,1.19-1.01,2.57,0.06,3.67
		c2.47,2.55,4.98,5.07,7.54,7.53c1.1,1.06,2.48,1.04,3.67,0.06c0.72-0.59,1.41-1.25,2.03-1.96c4.72-5.37,15.08-0.64,16.14,4.31
		c0.22,1.01,0.34,2.06,0.35,3.09c0.05,4.44,0.49,4.89,4.99,4.89c2.04,0,4.08,0,6.11,0c4.52,0,4.9-0.38,4.94-4.88
		c0.05-6.12,6.66-11.13,12.65-9.64c2.21,0.55,3.72,2.01,5.24,3.53c1.89,1.89,3.14,1.88,5.06-0.02c1.78-1.76,3.55-3.54,5.32-5.32
		c3.15-3.15,3.15-3.74-0.03-6.95c-0.15-0.15-0.29-0.3-0.44-0.44c-5.27-4.75-0.49-15.12,4.52-16.09c0.76-0.15,1.54-0.27,2.31-0.32
		c0.83-0.06,1.67,0.01,2.51-0.02c1.98-0.09,2.97-1.06,2.99-3.04c0.03-2.72,0.01-5.43,0.01-8.15c0-4.47-0.31-4.79-4.78-4.82
		c-5.9-0.04-10.79-5.98-9.85-11.84c0.42-2.62,2.03-4.38,3.8-6.12c1.78-1.75,1.76-3.07,0.03-4.83c-1.61-1.64-3.25-3.25-4.88-4.88
		c-3.94-3.94-3.94-3.94-7.96-0.17c-2.02,1.9-4.41,2.95-7.15,2.23c-6.3-1.65-9.75-4-9.35-11.16c0.01-0.21,0-0.42-0.01-0.63
		c-0.11-1.73-1.03-2.69-2.78-2.71c-3.45-0.04-6.9-0.04-10.35,0c-1.73,0.02-2.7,0.97-2.86,2.68c-0.06,0.67-0.02,1.36-0.02,2.04
		c-0.01,5.99-5.95,10.87-11.9,9.88c-2.62-0.44-4.36-2.08-6.1-3.84c-1.56-1.57-2.92-1.71-4.37-0.33c-2.49,2.38-4.93,4.83-7.31,7.32
		c-1.22,1.27-1.12,2.7,0.1,4.04c0.77,0.85,1.76,1.56,2.33,2.53C38.86,104.49,39.49,106.18,40.23,107.8z"/>
	<path class="st0" d="M180.31,91.99c0,2.4,0,4.81,0,7.21c-0.01,5.47-3.25,8.78-8.73,8.86c-2.4,0.04-4.81,0.05-7.21,0
		c-1.64-0.03-2.61,0.7-3.19,2.21c-0.82,2.14-1.68,4.27-2.64,6.35c-0.69,1.49-0.46,2.7,0.69,3.82c1.75,1.72,3.49,3.46,5.21,5.21
		c3.67,3.74,3.71,8.34,0.04,12.08c-3.55,3.62-7.14,7.2-10.76,10.75c-3.52,3.45-8.02,3.58-11.62,0.23c-2.95-2.74-5.74-5.64-8.56-8.51
		c-1.28-1.3-1.31-2.97-0.21-4.04c1.12-1.1,2.68-1.02,4.03,0.3c2.65,2.59,5.25,5.24,7.89,7.85c1.91,1.89,3.16,1.88,5.06-0.01
		c3.37-3.36,6.73-6.72,10.09-10.09c1.9-1.9,1.89-3.12-0.03-5.05c-1.69-1.71-3.41-3.39-5.09-5.11c-2.68-2.75-3.23-5.81-1.75-9.34
		c0.89-2.11,1.78-4.22,2.63-6.35c1.51-3.81,3.97-5.58,8.12-5.68c2.4-0.06,4.81,0.01,7.21-0.02c2.55-0.03,3.46-0.98,3.47-3.54
		c0.01-4.76,0.01-9.51,0-14.27c-0.01-2.6-0.98-3.57-3.61-3.59c-2.61-0.02-5.23,0.05-7.84-0.05c-3.28-0.12-5.63-1.77-6.97-4.74
		c-1.15-2.56-2.2-5.18-3.23-7.8c-1.23-3.13-0.61-5.97,1.64-8.4c1.7-1.84,3.53-3.57,5.29-5.35c2.07-2.09,2.09-3.24,0.05-5.28
		c-3.28-3.29-6.57-6.58-9.87-9.87c-2.07-2.07-3.23-2.08-5.28-0.05c-1.71,1.69-3.38,3.42-5.11,5.09c-2.68,2.57-5.75,3.18-9.21,1.7
		c-2.16-0.92-4.32-1.81-6.5-2.68c-3.73-1.49-5.51-4.02-5.55-8.04c-0.03-2.4,0.01-4.81-0.01-7.21c-0.03-2.53-1.01-3.51-3.53-3.52
		c-4.81-0.01-9.62-0.01-14.42,0c-2.46,0.01-3.41,0.94-3.45,3.4c-0.05,2.77,0.04,5.54-0.11,8.3c-0.18,3.28-1.95,5.53-4.96,6.81
		c-2.4,1.02-4.8,2.02-7.21,3.01c-3.35,1.37-6.35,0.77-8.95-1.7c-1.82-1.73-3.55-3.54-5.34-5.3c-1.86-1.84-3.1-1.85-4.94-0.02
		c-3.41,3.39-6.81,6.79-10.2,10.2c-1.82,1.83-1.82,3.1,0,4.95c2.64,2.68,5.32,5.32,7.97,8c0.92,0.93,1.3,2.03,0.61,3.27
		c-0.59,1.07-1.54,1.63-2.73,1.35c-0.67-0.16-1.36-0.57-1.85-1.05c-2.77-2.7-5.53-5.41-8.2-8.21c-3.44-3.61-3.41-8.18,0.05-11.74
		c3.57-3.67,7.2-7.29,10.86-10.86c3.68-3.59,8.29-3.53,11.97,0.08c1.68,1.64,3.33,3.33,5,4.98c1.62,1.61,2.26,1.71,4.31,0.83
		c2.01-0.86,4.02-1.74,6.07-2.5c1.59-0.59,2.28-1.62,2.26-3.31c-0.02-2.92-0.08-5.86,0.18-8.76c0.35-3.98,3.56-6.96,7.53-7.03
		c5.59-0.1,11.19-0.12,16.78,0.01c4.39,0.1,7.59,3.65,7.69,8.29c0.05,2.51,0.07,5.02-0.01,7.52c-0.05,1.65,0.65,2.65,2.15,3.24
		c2.18,0.86,4.35,1.75,6.49,2.7c1.43,0.64,2.6,0.44,3.69-0.67c1.72-1.76,3.46-3.49,5.21-5.21c3.8-3.73,8.38-3.77,12.2-0.03
		c3.55,3.47,7.06,6.98,10.55,10.52c3.79,3.84,3.73,8.45-0.08,12.31c-1.65,1.67-3.3,3.36-4.99,4.98c-1.21,1.16-1.5,2.36-0.77,3.93
		c0.98,2.13,1.81,4.32,2.69,6.5c0.55,1.36,1.46,2.07,2.99,2.04c2.51-0.05,5.02-0.04,7.53-0.01c5.16,0.07,8.52,3.45,8.54,8.58
		C180.32,86.97,180.31,89.48,180.31,91.99z"/>
	<path class="st0" d="M142.81,91.6c-0.1,9.64-3.3,17.72-9.74,24.51c-1.35,1.42-2.94,1.62-4.12,0.54c-1.21-1.11-1.2-2.69,0.19-4.14
		c4.27-4.46,6.96-9.7,8.07-15.78c2.96-16.23-9.15-32.39-25.48-34.07c-9.17-0.94-17.09,1.69-23.85,7.93
		c-0.49,0.45-1.05,0.94-1.66,1.13c-1.26,0.39-2.41,0.07-3.1-1.15c-0.71-1.26-0.5-2.53,0.61-3.38c2.86-2.16,5.58-4.7,8.77-6.21
		c13.16-6.23,25.84-5,37.33,3.96C138.45,71.67,142.61,80.92,142.81,91.6z"/>
	<path class="st0" d="M97.32,126.81c-0.23,15.12-11.11,23.81-24.14,23.96c-13.59,0.15-24.08-10.83-24-24.58
		c0.08-12.85,11.09-23.6,24.04-23.48C86.67,102.82,97.4,113.56,97.32,126.81z M91.9,126.83c-0.03-10.47-8.24-18.72-18.64-18.74
		c-10.44-0.02-18.75,8.34-18.73,18.84c0.02,10.3,8.46,18.58,18.89,18.54C83.59,145.43,91.92,137.02,91.9,126.83z"/>
</g>
</svg>
