<?xml version="1.0" encoding="utf-8"?>
<!-- Generator: Adobe Illustrator 26.1.0, SVG Export Plug-In . SVG Version: 6.00 Build 0)  -->
<svg version="1.1" id="Capa_1" xmlns="http://www.w3.org/2000/svg" xmlns:xlink="http://www.w3.org/1999/xlink" x="0px" y="0px"
	 viewBox="0 0 200 200" style="enable-background:new 0 0 200 200;" xml:space="preserve">
<!--style type="text/css">
	.st0{fill:#37BBED;}
</style-->
<g>
	<path class="st0" d="M144.33,97.62c0,0.5,0,1.16,0,1.81c0,20.08,0.02,40.17-0.01,60.25c-0.01,9.78-6.03,18.27-15.23,21.01
		c-2.99,0.89-6.27,1.11-9.42,1.12c-27.75,0.08-55.51,0.06-83.26,0.04c-12.7-0.01-22.34-9.74-22.35-22.47c0-3.69-0.01-7.38,0-11.08
		c0.01-2.44,0.88-3.36,3.32-3.37c5.71-0.03,11.42-0.01,17.12-0.01c0.61,0,1.21,0,2,0c0.03-0.7,0.09-1.29,0.09-1.88
		c0.22-31.61,0.44-63.21,0.66-94.82c0.02-2.96,0.99-3.94,3.9-3.94c22.1,0,44.21-0.01,66.31,0.03c1.32,0,1.89-0.37,2.41-1.62
		c6.29-15.15,21.42-24.98,37.66-24.56c19.52,0.5,36.14,15.75,38.17,35.03c2.18,20.67-10.9,38.87-31.25,43.3
		C151.22,97.17,147.84,97.24,144.33,97.62z M42.21,144.93c0.97,0,1.63,0,2.3,0c18.91,0,37.82,0,56.73,0c4.42,0,4.79,0.37,4.8,4.73
		c0.02,4.14-0.32,8.32,0.18,12.4c1.05,8.68,8.79,14.73,17.49,14.12c8.34-0.58,14.93-7.67,14.95-16.27
		c0.05-20.64,0.01-41.28,0.04-61.92c0-1.07-0.28-1.49-1.4-1.77c-9.71-2.43-17.51-7.69-23.21-15.96c-0.58-0.84-1.17-1.13-2.18-1.13
		c-8.5,0.04-17.01,0.02-25.51,0.02c-0.84,0-1.68,0.05-2.52-0.03c-1.65-0.16-2.71-1.33-2.67-2.87c0.03-1.46,1.07-2.56,2.65-2.73
		c0.5-0.05,1.01-0.02,1.51-0.02c7.61,0,15.22,0,22.83,0c0.6,0,1.2,0,2.03,0c-3.3-7.67-4.02-15.45-2.64-23.48
		c-21.64,0-43.09,0-64.73,0C42.64,81.66,42.42,113.18,42.21,144.93z M180.38,57.69c-0.05-18.76-15.22-33.9-33.97-33.88
		c-18.76,0.02-34,15.34-33.94,34.12c0.06,18.69,15.38,33.87,34.09,33.76C165.38,91.6,180.43,76.46,180.38,57.69z M19.71,150.55
		c0,3.38-0.1,6.67,0.02,9.95c0.32,8.82,7.4,15.7,16.19,15.71c23.43,0.03,46.87,0.01,70.3,0.01c0.39,0,0.78-0.08,1.33-0.14
		c-5.02-4.85-7.29-10.59-7.17-17.31c0.05-2.72,0.01-5.44,0.01-8.21C73.4,150.55,46.64,150.55,19.71,150.55z"/>
	<path class="st0" d="M102.38,127.87c-5.98,0-11.96,0.01-17.95-0.01c-2.17-0.01-3.42-1.26-3.21-3.14c0.17-1.56,1.37-2.46,3.42-2.46
		c6.04-0.02,12.08-0.01,18.11-0.01c5.76,0,11.52-0.01,17.28,0.01c0.72,0,1.49,0.03,2.14,0.29c1.28,0.52,1.86,1.58,1.67,2.96
		c-0.19,1.4-1.37,2.34-3.01,2.35c-4.25,0.03-8.5,0.01-12.75,0.01C106.18,127.87,104.28,127.87,102.38,127.87z"/>
	<path class="st0" d="M102.55,97.95c5.98,0,11.96-0.01,17.94,0c2.13,0,3.31,0.95,3.38,2.64c0.07,1.75-1.17,2.87-3.34,2.87
		c-12.02,0.02-24.04,0.02-36.05,0c-2.13,0-3.26-1.02-3.27-2.75c-0.01-1.82,1.12-2.76,3.4-2.76C90.59,97.94,96.57,97.95,102.55,97.95
		z"/>
	<path class="st0" d="M74.96,76.56c-0.03,4.74-4.05,8.63-8.9,8.62c-4.83-0.01-8.91-3.96-8.94-8.64c-0.03-4.73,4.17-8.77,9.04-8.7
		C71.05,67.91,74.99,71.81,74.96,76.56z M66.1,79.53c1.82-0.01,3.34-1.41,3.32-3.05c-0.02-1.65-1.55-3.01-3.37-3
		c-1.83,0.01-3.3,1.37-3.29,3.05C62.77,78.21,64.26,79.54,66.1,79.53z"/>
	<path class="st0" d="M74.96,100.7c0,4.75-3.96,8.64-8.84,8.68c-4.89,0.04-9.06-4-9.01-8.73c0.05-4.69,4.14-8.61,8.97-8.59
		C70.98,92.07,74.96,95.95,74.96,100.7z M66.09,103.72c1.85-0.01,3.34-1.37,3.32-3.02c-0.02-1.62-1.59-3.03-3.36-3.02
		c-1.81,0.01-3.3,1.39-3.29,3.06C62.77,102.41,64.24,103.72,66.09,103.72z"/>
	<path class="st0" d="M74.96,124.93c-0.01,4.75-3.98,8.63-8.86,8.64c-4.92,0.01-9.06-4.01-8.98-8.73c0.07-4.72,4.12-8.57,9-8.54
		C71.06,116.33,74.97,120.15,74.96,124.93z M66.04,127.91c1.87,0.01,3.39-1.34,3.38-3c-0.01-1.62-1.63-3.08-3.39-3.05
		c-1.74,0.03-3.22,1.37-3.26,2.98C62.71,126.53,64.17,127.9,66.04,127.91z"/>
	<path class="st0" d="M148.74,36.74c1.93,1.14,3.73,1.97,5.24,3.16c2.59,2.03,3.82,4.89,4.11,8.15c0.17,1.95-0.91,3.35-2.57,3.5
		c-1.64,0.15-2.85-1.05-3.07-3.06c-0.4-3.74-2.99-6.05-6.59-5.89c-3.13,0.14-5.74,2.87-5.81,6.07c-0.07,3.32,2.61,6.09,6.12,6.33
		c6.67,0.45,11.12,4.34,11.87,10.55c0.59,4.84-2.21,10.82-8.77,12.66c-0.1,0.03-0.2,0.1-0.5,0.25c0,0.89,0.05,1.89-0.01,2.88
		c-0.1,1.6-1.17,2.6-2.7,2.61c-1.54,0.01-2.87-1-2.7-2.55c0.25-2.37-0.72-3.39-2.79-4.43c-3.73-1.87-5.74-5.2-6-9.44
		c-0.13-2.16,0.77-3.36,2.49-3.48c1.77-0.12,2.73,0.84,3.01,3.01c0.4,3.18,2.35,5.37,5.16,5.8c2.87,0.44,5.45-0.88,6.67-3.4
		c1.81-3.75-0.53-8.24-4.67-8.74c-2.68-0.33-5.33-0.58-7.61-2.24c-3.83-2.78-5.52-6.54-4.97-11.2c0.51-4.33,2.88-7.51,6.87-9.21
		c1.48-0.63,1.98-1.35,1.78-2.81c-0.05-0.38-0.03-0.79,0.05-1.17c0.3-1.45,1.21-2.24,2.7-2.24c1.49,0,2.46,0.78,2.68,2.25
		C148.86,35.06,148.74,36.08,148.74,36.74z"/>
</g>
</svg>
