<?xml version="1.0" encoding="utf-8"?>
<!-- Generator: Adobe Illustrator 26.1.0, SVG Export Plug-In . SVG Version: 6.00 Build 0)  -->
<svg version="1.1" id="Capa_1" xmlns="http://www.w3.org/2000/svg" xmlns:xlink="http://www.w3.org/1999/xlink" x="0px" y="0px"
	 viewBox="0 0 200 200" style="enable-background:new 0 0 200 200;" xml:space="preserve">
<style type="text/css">
	.st0{fill:#37BBED;}
</style>
<g>
	<path class="st0" d="M133.19,26.89c0.73,0,1.4,0,2.06,0c14.65,0,29.31,0,43.96,0c4.84,0,7.05,2.24,7.05,7.12
		c0,0.84,0.03,1.69-0.01,2.53c-0.15,2.99-2.54,5.39-5.53,5.52c-1.45,0.06-2.9,0.01-4.57,0.01c0,0.75,0,1.35,0,1.94
		c0,11.06-0.02,22.12,0.04,33.18c0,0.94,0.32,1.99,0.81,2.79c2.71,4.39,5.57,8.68,8.28,13.07c0.55,0.9,0.91,2.06,0.94,3.11
		c0.11,3.81,0.05,7.63,0.04,11.45c-0.01,3.25-1.92,5.23-5.19,5.36c-1.56,0.06-3.13,0.01-4.8,0.01c0,14.98,0,29.83,0,44.92
		c1.3,0,2.63-0.02,3.95,0c3.55,0.05,6,2.51,6.04,6.06c0.01,1.12,0.03,2.25-0.01,3.37c-0.1,3.14-2.57,5.61-5.7,5.73
		c-0.5,0.02-1.01,0.01-1.52,0.01c-52.66,0-105.32-0.04-157.98,0.06c-4.46,0.01-7.79-2.57-7.29-7.43c0.07-0.72-0.01-1.46,0.02-2.19
		c0.14-3.06,2.58-5.5,5.64-5.6c1.4-0.05,2.8-0.01,4.33-0.01c0-14.97,0-29.86,0-44.92c-1.55,0-3.05,0.03-4.55-0.01
		c-3.49-0.08-5.41-2.02-5.42-5.47c-0.01-3.76-0.07-7.52,0.04-11.28c0.03-1.05,0.35-2.22,0.91-3.12c2.76-4.49,5.66-8.89,8.47-13.35
		c0.37-0.58,0.66-1.33,0.66-2c0.04-11.51,0.03-23.02,0.02-34.52c0-0.32-0.05-0.65-0.1-1.15c-1.46,0-2.85,0.04-4.24-0.01
		c-3.28-0.1-5.68-2.54-5.76-5.8c-0.03-1.07-0.01-2.13,0-3.2c0.04-3.68,2.53-6.16,6.31-6.17c9.32-0.02,18.64-0.01,27.96-0.01
		c6.23,0,12.46,0,18.6,0H133.19z M125.43,157.76c15.35,0,30.47,0,45.56,0c0-14.97,0-29.82,0-44.7c-15.19,0-30.27,0-45.56,0
		c0,0.69,0,1.3,0,1.9c0,3.31,0.03,6.62-0.02,9.93c-0.02,1.81-1.07,2.97-2.53,2.95c-1.45-0.02-2.48-1.19-2.53-2.99
		c-0.05-1.51-0.01-3.03-0.01-4.55c0-2.39,0-4.79,0-7.2c-6.03,0-11.83,0-17.63,0c0,14.97,0,29.81,0,44.65c5.93,0,11.73,0,17.63,0
		c0-1.98,0-3.83,0-5.68c0-4.77-0.02-9.54,0.01-14.31c0.01-2.25,1.15-3.4,2.98-3.13c1.42,0.21,2.09,1.16,2.1,3.14
		c0.02,6,0.01,12.01,0.01,18.01C125.43,156.44,125.43,157.1,125.43,157.76z M18.89,107.74c54.15,0,108.17,0,162.21,0
		c0-3.36,0-6.59,0-9.84c-54.12,0-108.13,0-162.21,0C18.89,101.22,18.89,104.4,18.89,107.74z M179.02,92.58
		c-1.97-3.07-3.83-5.8-5.5-8.65c-0.83-1.42-1.75-1.94-3.44-1.94c-46.71,0.06-93.41,0.04-140.12,0.04c-0.51,0-1.02-0.06-1.51,0.03
		c-0.35,0.06-0.8,0.21-0.97,0.48c-2.13,3.26-4.22,6.55-6.45,10.04C73.79,92.58,126.24,92.58,179.02,92.58z M74.51,157.8
		c0-14.95,0-29.79,0-44.71c-15.21,0-30.32,0-45.49,0c0,14.95,0,29.79,0,44.71C44.17,157.8,59.25,157.8,74.51,157.8z M29.05,42.18
		c0,11.66,0,23.14,0,34.66c9.34,0,18.58,0,27.89,0c0-11.6,0-23.08,0-34.66C47.6,42.18,38.37,42.18,29.05,42.18z M171,76.89
		c0-11.67,0-23.15,0-34.7c-9.33,0-18.56,0-27.84,0c0,11.62,0,23.13,0,34.7C152.5,76.89,161.69,76.89,171,76.89z M100.19,162.94
		c-26.27,0-52.54,0-78.82,0c-0.51,0-1.02-0.04-1.51,0.03c-0.3,0.04-0.81,0.25-0.83,0.41c-0.09,1.33-0.27,2.7-0.01,3.97
		c0.07,0.36,1.51,0.62,2.33,0.62C73.79,168,126.23,168,178.66,168c0.51,0,1.02,0.05,1.51-0.03c0.3-0.04,0.81-0.26,0.82-0.43
		c0.1-1.33,0.27-2.7,0.01-3.97c-0.07-0.35-1.52-0.6-2.33-0.6C152.51,162.94,126.35,162.94,100.19,162.94z M79.85,113.07
		c0,14.97,0,29.84,0,44.72c5.9,0,11.66,0,17.47,0c0-14.96,0-29.83,0-44.72C91.41,113.07,85.66,113.07,79.85,113.07z M66.79,42.19
		c-1.46,0-2.95,0-4.49,0c0,11.62,0,23.13,0,34.68c11.75,0,23.34,0,35.05,0V42.18L66.79,42.19z M102.57,42.18v26.33
		c0,2.15,0.09,4.33-0.03,6.49c-0.08,1.51,0.34,2,1.94,1.99c10.49-0.07,20.99-0.07,31.48,0c1.56,0.01,1.97-0.43,1.96-1.96
		c-0.06-10.32-0.03-20.65-0.04-30.97c0-0.6-0.05-1.2-0.08-1.89 M134.56,36.98c15.1,0.01,30.2,0.02,45.3,0.01
		c0.36,0,1.03-0.16,1.04-0.3c0.15-1.32,0.34-2.67,0.15-3.95c-0.05-0.36-1.35-0.75-2.08-0.75L65.31,31.97
		c-14.99-0.01-29.98-0.01-44.96,0c-0.42,0-1.18,0.19-1.2,0.36c-0.15,1.37-0.28,2.76-0.12,4.11c0.03,0.26,1.32,0.54,2.03,0.54
		c14.37,0.03,28.74,0.02,43.11,0.02c0.6,0,1.2,0,1.84,0L134.56,36.98z"/>
	<path class="st0" d="M148.36,122.07c4.04,0,8.08-0.02,12.12,0.01c3.73,0.03,5.57,1.89,5.57,5.6c0,5.22,0.01,10.44,0,15.65
		c-0.01,3.43-1.99,5.45-5.41,5.46c-8.25,0.01-16.5,0.01-24.74,0c-3.28-0.01-5.36-1.87-5.41-5.13c-0.1-5.5-0.1-11,0-16.49
		c0.06-3.24,2-5.03,5.25-5.07C139.94,122.03,144.15,122.07,148.36,122.07z M135.69,127.23c0,5.61,0,11.01,0,16.39
		c8.49,0,16.83,0,25.2,0c0-5.51,0-10.92,0-16.39C152.45,127.23,144.11,127.23,135.69,127.23z"/>
	<path class="st0" d="M51.69,148.79c-4.1,0-8.19,0.01-12.29,0c-3.42-0.01-5.4-2.02-5.41-5.46c-0.01-5.33-0.02-10.66,0-15.99
		c0.01-3.21,1.88-5.22,5.07-5.24c8.47-0.06,16.95-0.05,25.42,0c3.12,0.02,5.05,1.93,5.09,5.06c0.08,5.5,0.08,11,0,16.49
		c-0.05,3.2-2.16,5.12-5.42,5.13C59.99,148.8,55.84,148.79,51.69,148.79z M64.41,127.29c-8.51,0-16.89,0-25.23,0
		c0,5.54,0,10.95,0,16.34c8.47,0,16.8,0,25.23,0C64.41,138.17,64.41,132.8,64.41,127.29z"/>
</g>
</svg>
