<?xml version="1.0" encoding="utf-8"?>
<!-- Generator: Adobe Illustrator 26.1.0, SVG Export Plug-In . SVG Version: 6.00 Build 0)  -->
<svg version="1.1" id="Capa_1" xmlns="http://www.w3.org/2000/svg" xmlns:xlink="http://www.w3.org/1999/xlink" x="0px" y="0px"
	 viewBox="0 0 200 200" style="enable-background:new 0 0 200 200;" xml:space="preserve">
<style type="text/css">
	.st0{fill:#37BBED;}
</style>
<g>
	<path class="st0" d="M39.64,107.52c-5.72-2.49-8.93-6.43-9.51-12.23c-0.54-5.39,1.37-9.89,5.79-13.02
		c6.96-4.92,14.02-9.7,21.14-14.37c1.57-1.03,3.53-1.63,5.39-1.97c1.42-0.26,2.02-0.82,2.53-2.08c5.43-13.47,10.9-26.92,16.41-40.36
		c2-4.88,6.19-7.51,11.32-7.31c4.91,0.19,9.27,3.35,10.83,7.9c0.99,2.88,0.81,5.74-0.35,8.55c-2.46,6.02-4.91,12.04-7.36,18.07
		c-0.25,0.61-0.47,1.24-0.65,1.73c2.27,0.64,4.46,1.24,6.68,1.87c1.1-0.97,2.25-2.17,3.57-3.11c6.52-4.63,14.54-3.2,19.02,3.4
		c6.29,9.27,12.21,18.8,18.9,27.78c7.72,10.37,9.88,22,9.48,34.45c-0.07,2.19-0.41,4.37-0.39,6.56c0.01,1.13,0.28,2.43,0.88,3.35
		c5.03,7.62,10.18,15.16,15.28,22.73c2.09,3.09,1.77,4.7-1.34,6.82c-12.77,8.72-25.53,17.45-38.3,26.17
		c-3.23,2.21-4.88,1.88-7.09-1.39c-4.84-7.16-9.65-14.34-14.54-21.47c-0.54-0.79-1.43-1.5-2.32-1.85
		c-20.42-8.01-40.81-16.12-61.33-23.87c-11.42-4.31-13.74-18.69-4.91-25.81C38.99,107.88,39.22,107.78,39.64,107.52z M78.92,92.31
		c-1.76,4.34-3.55,8.66-5.24,13.01c-0.16,0.42,0.15,1.14,0.44,1.59c1.59,2.45,3.26,4.85,4.89,7.27c1.34,1.99,1.45,3.63,0.35,5.05
		c-1.09,1.41-2.62,1.71-4.96,0.92c-7.82-2.66-15.64-5.34-23.46-7.99c-3.73-1.26-8.19,0.83-9.68,4.46c-1.5,3.66,0.15,7.91,3.81,9.75
		c0.54,0.27,1.11,0.48,1.68,0.7c20.72,8.06,41.44,16.13,62.17,24.16c1.67,0.65,2.91,1.62,3.87,3.13c1.93,3.02,3.99,5.97,6,8.95
		c2.62,3.87,5.24,7.74,7.95,11.74c11.54-7.89,22.97-15.7,34.43-23.52c-5.18-7.66-10.25-15.11-15.22-22.62c-0.66-1-1.28-2.4-1.14-3.5
		c0.87-6.5,0.98-12.99,0.24-19.49c-0.61-5.36-1.87-10.53-4.95-15.09c-7.23-10.69-14.44-21.39-21.68-32.07
		c-2.58-3.8-7.55-3.87-10.33-0.18c-0.58,0.76-0.69,1.38-0.06,2.25c1.57,2.16,3.04,4.41,4.51,6.65c1.42,2.15,1.07,4.4-0.8,5.59
		c-1.83,1.16-3.86,0.59-5.31-1.52c-1.78-2.61-3.37-5.39-5.37-7.82c-1.18-1.43-2.9-2.56-4.59-3.37c-1.67-0.8-4.15,0.34-5.28,1.98
		c-1.12,1.62-1.07,3.05,0.2,4.75c2.48,3.31,4.72,6.8,6.98,10.26c1.65,2.53,0.34,5.56-2.42,5.85c-1.72,0.18-2.91-0.6-3.82-1.97
		c-1.75-2.63-3.53-5.23-5.42-8.04c-1.12,2.75-1.96,5.37-3.22,7.78c-1.17,2.24-1,3.96,0.61,5.9c1.55,1.87,1.46,3.76,0.24,5.16
		C83.07,93.48,81.35,93.6,78.92,92.31z M64.22,108.92c5.8-14.26,11.52-28.31,17.3-42.52c-2.78-1.14-5.46-2.24-8.28-3.4
		c-5.85,14.38-11.66,28.65-17.5,43.01C58.6,106.99,61.29,107.91,64.22,108.92z M60.72,74.23c-7.2,4.89-14,9.47-20.74,14.14
		c-2.25,1.56-3.14,4.84-2.34,7.55c0.75,2.55,3.13,4.6,5.65,4.77c3.24,0.22,6.61-0.65,7.92-3.44C54.67,89.93,57.45,82.28,60.72,74.23
		z M84.3,59.56c1.98-4.85,3.9-9.59,5.87-14.42c-2.88-1.16-5.54-2.24-8.3-3.36c-1.99,4.91-3.9,9.61-5.85,14.42
		C78.85,57.35,81.48,58.41,84.3,59.56z M92.96,38.31c1.28-3.17,2.6-6.16,3.69-9.24c0.77-2.17-0.41-4.26-2.6-5.14
		c-2.35-0.94-4.61-0.3-5.6,1.85c-1.36,2.96-2.51,6.02-3.8,9.16C87.48,36.09,90.15,37.18,92.96,38.31z"/>
</g>
</svg>
