<?xml version="1.0" encoding="utf-8"?>
<!-- Generator: Adobe Illustrator 26.1.0, SVG Export Plug-In . SVG Version: 6.00 Build 0)  -->
<svg version="1.1" id="Capa_1" xmlns="http://www.w3.org/2000/svg" xmlns:xlink="http://www.w3.org/1999/xlink" x="0px" y="0px"
	 viewBox="0 0 200 200" style="enable-background:new 0 0 200 200;" xml:space="preserve">
<!--style type="text/css">
	.st0{fill:#37BBED;}
</style-->
<g>
	<path class="st0" d="M102.56,134.45c0,0.59,0,1.18,0,1.78c0,7.39,0,14.78,0,22.17c0,2.6-0.89,3.9-2.61,3.83
		c-1.63-0.06-2.39-1.27-2.39-3.83c0-7.39,0-14.78,0-22.17c0-0.59,0-1.19,0-2.27c-1.39,1.36-2.46,2.41-3.52,3.46
		c-3.15,3.1-6.49,2.76-8.98-0.93c-2-2.97-3.98-5.95-5.97-8.93c-0.06-0.09-0.15-0.16-0.37-0.4c-5.64,2.1-11.35,4.21-17.03,6.38
		c-0.64,0.25-1.22,0.76-1.73,1.25c-1.88,1.78-2.59,4.03-2.58,6.56c0,5.68,0,11.36,0,17.04c0,0.55,0.01,1.11-0.05,1.65
		c-0.14,1.28-0.96,2-2.16,2.14c-1.22,0.15-2.15-0.47-2.53-1.67c-0.19-0.62-0.24-1.3-0.24-1.95c-0.02-5.46,0.01-10.92-0.02-16.38
		c-0.02-2.91,0.39-5.7,1.91-8.24c-2.17-1.86-2.29-1.86-4.28,0.05c-4.47,4.3-9.21,5.2-13.73,2.42c-1.39-0.85-2.61-2.03-3.78-3.18
		c-0.72-0.71-1.26-0.76-2.13-0.29c-2.13,1.15-4.32,2.2-6.49,3.26c-2.49,1.21-3.67,3.16-3.65,5.94c0.05,5.29,0.01,10.59,0.01,15.88
		c0,0.39,0.01,0.77,0,1.16c-0.04,1.9-1.02,3.07-2.53,3.04c-1.46-0.04-2.41-1.17-2.42-2.98c-0.02-3.25-0.01-6.51-0.01-9.76
		c0-2.59-0.01-5.18,0-7.77c0.02-4.36,1.96-7.6,5.8-9.65c2.08-1.11,4.2-2.14,6.36-3.23c-1.83-1.17-3.59-2.23-5.27-3.4
		c-0.85-0.59-1.55-1.4-2.3-2.12c-1.74-1.7-1.99-3.42-1.25-5.93c1.03-3.49,1.21-7.24,1.6-10.89c0.42-3.94,0.29-7.97,1.06-11.82
		c1.95-9.76,9.83-16.36,19.73-17c8.87-0.57,17.88,5.9,20.51,15.14c0.92,3.24,1.04,6.72,1.39,10.1c0.41,3.99,0.64,8.01,1.05,12
		c0.12,1.13,0.51,2.25,0.94,3.31c0.63,1.55,0.56,3-0.68,4.1c-2.17,1.92-4.46,3.7-6.74,5.5c-0.45,0.36-1.04,0.56-1.61,0.85
		c1.21,1.15,2.2,1.05,3.7,0.41c4.81-2.03,9.75-3.74,14.66-5.53c1.15-0.42,1.91-0.97,2.59-2.15c0.97-1.68,2.63-2.94,3.88-4.47
		c0.47-0.58,0.61-1.43,0.89-2.17c0.04-0.1-0.01-0.22,0.01-0.33c0.51-4.22-0.57-7.55-3.72-10.85c-4.96-5.2-6.86-11.99-6.85-19.15
		c0-3.52-0.8-6.78-1.58-10.16c-1.82-7.89-2.3-15.91,1.53-23.41c4.11-8.04,10.94-12.63,19.95-12.9c12.62-0.37,25.26-0.12,37.89-0.11
		c1.83,0,2.92,0.92,2.91,2.68c-0.05,10.03-0.13,20.06-0.32,30.09c-0.03,1.62-0.38,3.35-1.06,4.8c-1.37,2.94-1.26,5.97-1.25,9.05
		c0.02,5.03-0.79,9.95-3.39,14.29c-1.76,2.94-4.18,5.48-6.25,8.25c-0.45,0.6-0.66,1.38-0.95,2.1c-0.08,0.19,0.02,0.44-0.02,0.66
		c-0.72,4.36,0.48,7.97,4.12,10.65c0.17,0.13,0.4,0.3,0.44,0.48c0.5,2.36,2.6,2.54,4.33,3.19c2.93,1.1,5.92,2.08,8.83,3.23
		c1.35,0.54,2.61,0.7,3.98,0.17c0.66-0.26,1.36-0.43,2.05-0.62c3.15-0.9,3.19-0.9,3.02-4.13c-0.03-0.57-0.34-1.29-0.76-1.65
		c-4.8-4.06-7.24-9.22-7.14-15.49c0.04-2.31-0.42-4.36-1.41-6.49c-4.22-9.07,2.64-20.74,12.61-21.2c8.42-0.39,16.86-0.25,25.3-0.29
		c1.73-0.01,2.87,0.88,2.88,2.35c0.01,5.17-0.05,10.35-0.27,15.52c-0.06,1.38-0.61,2.81-1.23,4.07c-0.84,1.68-1.19,3.36-1.11,5.23
		c0.31,6.7-1.96,12.24-7.23,16.6c-0.76,0.63-0.67,2.51-0.6,3.79c0.03,0.48,1.07,1.1,1.75,1.32c2.93,0.94,5.92,1.71,8.86,2.61
		c5.04,1.56,7.81,5.32,7.82,10.57c0.01,6.4,0,12.79,0,19.19c0,0.22,0.01,0.44,0,0.66c-0.1,1.63-1.14,2.73-2.55,2.68
		c-1.36-0.05-2.36-1.09-2.4-2.66c-0.05-2.04-0.01-4.08-0.01-6.12c0-4.52,0.02-9.04-0.01-13.56c-0.02-3.16-1.44-5.14-4.38-6.04
		c-3.37-1.02-6.75-1.99-10.15-2.9c-0.41-0.11-1.09,0.1-1.41,0.4c-1.72,1.63-3.41,3.3-5.02,5.04c-0.38,0.42-0.55,1.17-0.55,1.77
		c-0.04,6.67-0.02,13.34-0.02,20.02c0,0.39,0.01,0.77-0.01,1.16c-0.09,1.79-1.07,2.91-2.54,2.9c-1.45-0.01-2.43-1.14-2.43-2.94
		c-0.02-7,0.02-14.01-0.05-21.01c-0.01-0.77-0.44-1.66-0.94-2.27c-1.06-1.26-2.31-2.37-3.47-3.54c-1.96-1.96-1.96-1.96-4.76-0.81
		c3.66,3.77,3.73,8.49,3.64,13.27c-0.08,4.69-0.02,9.37-0.01,14.06c0,1.22-0.2,2.32-1.42,2.93c-1.75,0.88-3.51-0.31-3.54-2.48
		c-0.05-3.53-0.01-7.06-0.02-10.59c0-2.59,0.02-5.18,0-7.77c-0.03-3.99-1.99-6.82-5.74-8.21c-5.16-1.91-10.34-3.76-15.69-5.7
		c-0.83,1.22-1.69,2.48-2.54,3.75c-1.35,2.01-2.66,4.05-4.05,6.04c-2.12,3.03-5.58,3.39-8.22,0.84c-1.18-1.14-2.26-2.4-3.38-3.6
		C102.9,134.29,102.73,134.37,102.56,134.45z M126.77,43.02c-0.33-0.11-0.43-0.17-0.54-0.17c-11.75,0-23.5-0.17-35.24,0.08
		c-7.68,0.17-14.47,5.41-16.63,12.74c-1.9,6.47-1.52,13.05,0.46,19.53c0.58,1.91,1.02,3.93,1.08,5.91c0.13,4.14,0.2,8.24,1.61,12.22
		c3.25,9.16,11.61,15.53,21.25,16.1c9.58,0.56,18.54-4.73,22.86-13.42c2.24-4.49,2.62-9.28,2.48-14.16
		c-0.07-2.39,0.14-4.66,1.14-6.92c0.72-1.63,1.15-3.49,1.23-5.27c0.23-5.06,0.24-10.14,0.29-15.21
		C126.8,50.66,126.77,46.86,126.77,43.02z M171.97,82.81c-7.9,0-15.4-0.29-22.87,0.08c-7.17,0.36-11.53,8.32-8.34,14.74
		c1.14,2.3,1.72,4.58,1.57,7.12c-0.17,2.91,0.4,5.68,1.8,8.28c2.7,5.03,8.38,7.83,14.03,6.84c5.53-0.97,10.16-5.65,10.72-11.3
		c0.44-4.46,0.92-8.77,2.36-13.14C172.5,91.57,171.8,87.07,171.97,82.81z M25.39,104.02c2.35,0.75,2.58,1.03,2.86,3.38
		c0.05,0.38,0.14,0.76,0.18,1.14c0.54,5.41,5.45,11.04,12.55,11.52c5.52,0.37,11.37-3.39,13.34-8.9c0.6-1.69,0.46-3.11-0.62-4.6
		c-3.17-4.38-7.63-6.41-12.73-7.57c-2.55-0.58-4.5-0.17-5.98,2.04c-0.27,0.4-0.67,0.72-1.03,1.07c-1.26,1.22-2.78,1.36-3.81,0.37
		c-1.03-1-0.95-2.54,0.25-3.82c1.28-1.37,2.53-2.78,3.93-4.02c0.6-0.54,1.55-1.02,2.32-0.99c8.25,0.33,15.57,2.76,20.81,9.63
		c0.07,0.1,0.26,0.11,0.49,0.2c-0.12-4.51-0.39-8.88-2.76-12.82c-3.09-5.12-7.61-7.98-13.57-7.97c-5.89,0.01-10.36,2.84-13.45,7.88
		C25.62,94.72,25.44,99.31,25.39,104.02z M113.37,111.27c-8.93,4.25-17.77,4.27-26.77-0.09c0,1.45-0.06,2.6,0.03,3.74
		c0.03,0.43,0.28,0.99,0.62,1.23c4.24,2.94,8.52,5.84,12.79,8.75c3.54-2.41,6.86-4.98,10.48-7.06c2.61-1.5,3.47-3.38,2.95-6.16
		C113.46,111.62,113.44,111.56,113.37,111.27z M115.55,120.33c-3.89,2.66-7.72,5.28-11.39,7.79c2.12,2.13,4.14,4.15,6.24,6.26
		c1.96-2.93,3.97-5.93,5.99-8.94C118.16,122.78,118.16,122.78,115.55,120.33z M81.98,122.89c2.61,3.91,5.17,7.74,7.65,11.45
		c2.12-2.1,4.17-4.13,6.28-6.22c-3.73-2.55-7.53-5.14-11.45-7.82C83.62,121.17,82.84,121.99,81.98,122.89z M36.26,124.76
		c-0.35,2.61-1.11,5.61,2.42,7.39c2.04,1.03,3.9,1,5.95-0.02c3.61-1.8,2.64-4.8,2.31-7.36C43.37,124.76,39.84,124.76,36.26,124.76z
		 M155.74,132.54c1.53-1.61,2.77-3.09,4.2-4.38c1.2-1.08,1.68-2.21,1.21-3.44c-3.64,0-7.16,0-10.98,0c0.12,0.65,0,1.85,0.54,2.52
		C152.13,129.04,153.85,130.6,155.74,132.54z M30.64,124.9c0.22-0.16,0.45-0.32,0.67-0.48c-0.18-0.98-0.05-2.21-0.6-2.88
		c-1.98-2.43-4.19-4.68-6.16-6.83c-0.26,1.01-0.72,2.46-0.95,3.95c-0.09,0.61,0.13,1.59,0.56,1.92
		C26.25,122.11,28.47,123.48,30.64,124.9z M52.23,124.66c2.82-1.02,5.3-2.34,7.29-4.46c0.23-0.24,0.43-0.7,0.37-1
		c-0.38-1.63-0.84-3.25-1.21-4.61c-1.62,1.95-3.11,4.15-5,5.9C52.38,121.69,51.73,122.75,52.23,124.66z"/>
	<path class="st0" d="M169.17,151.83c0-2.53-0.02-5.07,0.01-7.6c0.02-1.79,0.99-2.86,2.5-2.84c1.44,0.02,2.44,1.06,2.45,2.75
		c0.03,5.07,0.03,10.14,0,15.2c-0.01,1.76-1.08,2.9-2.53,2.88c-1.45-0.03-2.41-1.16-2.42-2.96
		C169.15,156.79,169.17,154.31,169.17,151.83z"/>
	<path class="st0" d="M30.83,153.36c0,2.03,0.03,4.07-0.01,6.1c-0.03,1.65-1.02,2.75-2.42,2.78c-1.39,0.02-2.5-1.08-2.52-2.7
		c-0.05-4.06-0.05-8.13,0-12.19c0.02-1.65,1.08-2.67,2.53-2.65c1.44,0.02,2.39,1.06,2.42,2.74
		C30.86,149.4,30.83,151.38,30.83,153.36z"/>
	<path class="st0" d="M126.78,154.41c0-1.71-0.02-3.41,0.01-5.12c0.02-1.47,0.75-2.4,2.24-2.58c1.39-0.17,2.62,0.78,2.67,2.32
		c0.11,3.57,0.1,7.15,0.02,10.72c-0.04,1.49-1.3,2.53-2.59,2.47c-1.34-0.07-2.29-1.12-2.33-2.7
		C126.75,157.82,126.78,156.12,126.78,154.41z"/>
	<path class="st0" d="M73.29,154.41c0,1.7,0.04,3.41-0.01,5.11c-0.05,1.58-1.01,2.63-2.32,2.7c-1.28,0.07-2.53-0.96-2.58-2.47
		c-0.11-3.52-0.11-7.04-0.01-10.56c0.04-1.61,1.13-2.52,2.52-2.5c1.45,0.02,2.35,1.01,2.4,2.76
		C73.33,151.11,73.29,152.76,73.29,154.41z"/>
	<path class="st0" d="M83.94,66.36c0,1.92,0.02,3.72-0.01,5.53c-0.02,1.26-0.51,2.27-1.81,2.65c-1.44,0.42-2.91-0.41-3-1.98
		c-0.15-2.46-0.22-4.97,0.11-7.4c0.27-1.97,1.8-3.38,3.8-3.68c9.44-1.43,18.87-1.79,28.16,1c3.3,0.99,6.31,2.58,8.83,4.99
		c1.23,1.17,1.39,2.55,0.45,3.66c-0.87,1.02-2.38,1.21-3.54,0.17c-4.33-3.91-9.66-5.06-15.21-5.61
		C95.88,65.11,90.05,65.46,83.94,66.36z"/>
	<path class="st0" d="M150.54,91.09c4.52,0.2,9,0.67,13.25,2.35c0.2,0.08,0.41,0.17,0.6,0.26c1.49,0.72,2.05,1.86,1.56,3.18
		c-0.5,1.35-1.72,2.03-3.22,1.44c-4.54-1.79-9.3-2.15-14.09-2.37c-0.49-0.02-0.99-0.08-1.47-0.19c-1.15-0.27-1.79-1.03-1.84-2.22
		c-0.05-1.26,0.52-2.22,1.76-2.42C148.22,90.94,149.39,91.09,150.54,91.09z"/>
</g>
</svg>
