<?xml version="1.0" encoding="utf-8"?>
<!-- Generator: Adobe Illustrator 26.1.0, SVG Export Plug-In . SVG Version: 6.00 Build 0)  -->
<svg version="1.1" id="Capa_1" xmlns="http://www.w3.org/2000/svg" xmlns:xlink="http://www.w3.org/1999/xlink" x="0px" y="0px"
	 viewBox="0 0 200 200" style="enable-background:new 0 0 200 200;" xml:space="preserve">
<style type="text/css">
	.st0{fill:#37BBED;}
</style>
<g>
	<path class="st0" d="M91.58,64.45c3.36,0.09,5.73-1.5,8.29-3.59c8.06-6.62,17.33-7.86,26.98-4.07c9.17,3.6,14.92,10.44,16.73,20.2
		c1.48,7.97-0.23,15.4-5.44,21.67c-1.85,2.23-1.92,4.51-2.17,6.96c0.16,0.12,0.32,0.25,0.48,0.37c1.79-1.99,3.72-3.87,5.34-5.99
		c2.57-3.35,4.23-7.18,5.17-11.31c0.07-0.29,0.13-0.59,0.22-0.88c0.57-1.7,1.78-2.48,3.28-2.13c1.51,0.35,2.4,1.59,1.95,3.36
		c-0.66,2.63-1.38,5.29-2.48,7.75c-3.16,7.06-8.14,12.54-14.81,16.53c-1.06,0.63-2.03,1.71-2.6,2.81
		c-3.32,6.42-8.03,11.47-14.18,15.25c-1.1,0.68-2.12,1.78-2.73,2.92c-5.44,10.25-13.72,16.76-25.07,19.23
		c-0.94,0.21-2.31-0.21-3.05-0.84c-0.53-0.46-0.78-2.04-0.4-2.6c0.61-0.89,1.78-1.5,2.84-1.95c2.77-1.18,5.77-1.9,8.39-3.33
		c11.55-6.29,17.68-19.88,15.07-32.94c-2.51-12.56-13.16-22.56-25.87-24.29c-19.6-2.67-36.51,13.05-35.21,32.72
		c0.87,13.16,10.73,24.78,23.54,27.74c0.53,0.12,1.07,0.22,1.58,0.4c1.55,0.55,2.28,1.81,1.91,3.24c-0.38,1.5-1.71,2.32-3.36,1.99
		c-6.37-1.29-12.06-4.02-16.88-8.38c-8.72-7.89-13-17.79-12.2-29.49c0.83-12.1,6.5-21.66,16.76-28.28c1.89-1.22,3.28-2.57,4.34-4.61
		c3.15-6.13,7.87-10.83,13.8-14.38c0.96-0.58,1.88-1.54,2.37-2.54c6.62-13.65,21.48-21.89,36.64-20.22
		c15.39,1.7,28.36,13.35,31.56,28.34c0.45,2.11-0.22,3.6-1.78,4c-1.78,0.46-3.04-0.57-3.61-2.87c-3.14-12.7-11.18-20.64-23.85-23.44
		c-11.99-2.66-23.97,1.95-31.22,12.05C91.78,64.05,91.69,64.26,91.58,64.45z M119.14,123.88c7.61-5.28,13.63-17.32,11.08-30.2
		c-2.42-12.27-13.03-22.31-25.78-24.21c-12.63-1.88-24.63,4.89-29.61,13.17c2.39-0.56,4.58-0.38,6.55-2.29
		c6.42-6.23,14.32-8.5,23.08-7.13c7.96,1.24,14.07,5.52,18.47,12.31c5.81,8.95,5.65,21.87-0.91,30.22
		C120.03,118.28,118.96,120.76,119.14,123.88z M105.16,63.9c16.04,3.2,26.17,12.7,30.52,28.49c5.04-8.06,3.22-19.66-3.98-26.26
		C124.3,59.33,112.46,58.29,105.16,63.9z M88.32,81.97c16.07,3.24,26.15,12.72,30.47,28.41c5.08-7.1,3.2-19.34-3.73-26.02
		C107.14,76.74,94.97,76.9,88.32,81.97z"/>
	<path class="st0" d="M19.07,120.38c-2.54,0-4.89-0.02-7.23,0.01c-2.1,0.02-3.84-0.54-4.73-2.64c-0.9-2.14,0.06-3.73,1.53-5.19
		c3.18-3.17,6.34-6.36,9.53-9.52c2.52-2.49,4.7-2.46,7.23,0.04c3.23,3.21,6.42,6.46,9.67,9.64c1.49,1.46,2.17,3.11,1.36,5.08
		c-0.82,2-2.55,2.61-4.59,2.59c-2.35-0.02-4.71-0.01-7.18-0.01c-0.04,0.61-0.1,1.08-0.1,1.54c0,9.53-0.05,19.05,0.01,28.58
		c0.07,11.92,7.59,21.42,19.15,24.27c1.46,0.36,2.99,0.59,4.49,0.59c34.54,0.03,69.07,0.08,103.61-0.01
		c11.24-0.03,21.59-9.26,23.22-20.36c0.26-1.79,0.37-3.62,0.38-5.43c0.04-9.77,0.02-19.54,0.02-29.31c0-0.49-0.02-0.97,0.01-1.46
		c0.14-1.92,1.34-3.18,2.9-3.08c1.55,0.1,2.56,1.27,2.56,3.17c0,11.41,0.34,22.83-0.16,34.22c-0.54,12.41-9.59,23.68-22.85,26.91
		c-2.62,0.64-5.4,0.85-8.1,0.85c-33.2,0.06-66.4-0.1-99.6,0.1c-15.24,0.09-27.65-10.34-30.42-23.9c-0.49-2.41-0.65-4.93-0.67-7.39
		c-0.08-9.04-0.03-18.08-0.03-27.12C19.07,121.88,19.07,121.23,19.07,120.38z M28.95,114.83c-2.49-2.49-4.92-4.9-7-6.98
		c-2.3,2.3-4.71,4.7-7,6.98C19.39,114.83,24.16,114.83,28.95,114.83z"/>
	<path class="st0" d="M180.92,79.21c2.8,0,5.28,0.02,7.77-0.01c1.96-0.02,3.41,0.73,4.2,2.56c0.77,1.79,0.27,3.34-1.03,4.65
		c-3.46,3.49-6.91,7-10.44,10.42c-2.06,2-4.38,1.99-6.44-0.01c-3.52-3.43-6.97-6.93-10.44-10.42c-1.32-1.34-1.7-2.97-0.97-4.69
		c0.73-1.72,2.14-2.54,4.05-2.52c2.53,0.03,5.07,0.01,7.7,0.01c0.05-0.65,0.11-1.11,0.11-1.58c0.01-9.41,0.05-18.81-0.01-28.22
		c-0.08-11.89-7.66-21.41-19.22-24.22c-1.4-0.34-2.87-0.56-4.31-0.56c-34.6-0.03-69.2-0.08-103.79,0.01
		c-11.12,0.03-21.5,9.28-23.13,20.26c-0.26,1.79-0.38,3.62-0.39,5.43c-0.04,9.83-0.02,19.66-0.02,29.49c0,0.49,0.03,0.97-0.02,1.46
		c-0.16,1.82-1.3,3.03-2.81,3c-1.54-0.03-2.65-1.23-2.65-3.08c0-11.53-0.41-23.08,0.18-34.58c0.65-12.61,9.92-23.55,22.91-26.65
		c2.56-0.61,5.28-0.83,7.92-0.84c33.26-0.05,66.53,0.08,99.79-0.09c15.04-0.08,27.52,10.19,30.36,24c0.49,2.41,0.62,4.93,0.64,7.4
		c0.07,8.86,0.03,17.72,0.03,26.58C180.92,77.67,180.92,78.32,180.92,79.21z M171.17,84.78c2.4,2.37,4.82,4.76,6.94,6.86
		c2.22-2.23,4.62-4.64,6.82-6.86C180.56,84.78,175.8,84.78,171.17,84.78z"/>
	<path class="st0" d="M110.26,118.19c-0.04,14.72-12.13,27-26.57,27c-15.7,0-27.88-12.08-27.77-27.53
		c0.1-14.7,12.43-26.79,27.27-26.77C98.19,90.92,110.3,103.13,110.26,118.19z M104.78,118.12c0-12.05-9.71-21.78-21.69-21.75
		c-11.79,0.03-21.63,9.76-21.68,21.46c-0.05,12.25,9.71,21.9,22.13,21.89C95.16,139.7,104.78,129.92,104.78,118.12z"/>
	<path class="st0" d="M81.31,133.35c-2.17-0.95-4.46-1.72-6.46-2.95c-0.81-0.5-1.4-2.02-1.39-3.07c0.02-2.14,1.71-2.85,3.55-1.75
		c1.47,0.88,2.96,1.72,4.91,2.85c0-3.06,0.04-5.47-0.04-7.88c-0.01-0.39-0.54-0.88-0.94-1.11c-1-0.56-2.1-0.94-3.1-1.49
		c-3.12-1.7-4.16-4.46-3.66-7.82c0.48-3.22,2.53-5.12,5.59-6c1.12-0.32,2.48-0.23,2.47-2c0-0.22,0.78-0.64,1.16-0.61
		c0.46,0.04,0.97,0.39,1.29,0.76c0.24,0.27,0.2,0.78,0.25,1.01c1.79,0.45,3.45,0.75,5.03,1.3c1.23,0.43,1.98,1.39,1.75,2.83
		c-0.29,1.78-1.44,2.46-3.15,1.86c-1.17-0.41-2.33-0.81-3.8-1.32c0,2.44-0.04,4.49,0.03,6.54c0.01,0.38,0.38,0.86,0.72,1.08
		c0.61,0.39,1.33,0.58,1.98,0.9c3.7,1.75,5.21,4.41,4.9,8.66c-0.26,3.59-2.41,6.18-6.09,7.28c-0.87,0.26-1.77,0.32-1.68,1.64
		c0.02,0.28-0.7,0.83-1.13,0.87c-0.44,0.05-1.04-0.25-1.36-0.6c-0.29-0.31-0.3-0.89-0.44-1.34
		C81.56,133.1,81.44,133.23,81.31,133.35z M84.45,127.71c1.94-0.32,2.99-1.39,3.04-3.03c0.05-1.71-1.09-3.01-3.12-3.44
		c0,1.82,0,3.62,0,5.42C84.37,127.01,84.42,127.36,84.45,127.71z M82.21,108.36c-1.7,0.23-2.86,0.84-3.09,2.49
		c-0.22,1.58,0.71,2.5,3.09,3.18C82.21,112.2,82.21,110.4,82.21,108.36z"/>
</g>
</svg>
