<?xml version="1.0" encoding="utf-8"?>
<!-- Generator: Adobe Illustrator 26.1.0, SVG Export Plug-In . SVG Version: 6.00 Build 0)  -->
<svg version="1.1" id="Capa_1" xmlns="http://www.w3.org/2000/svg" xmlns:xlink="http://www.w3.org/1999/xlink" x="0px" y="0px"
	 viewBox="0 0 200 200" style="enable-background:new 0 0 200 200;" xml:space="preserve">
<style type="text/css">
	.st0{fill:#37BBED;}
</style>
<g>
	<path class="st0" d="M49.26,54.39c-0.41-3.64-0.77-6.91-1.16-10.18c-0.35-2.96-0.75-5.91-1.09-8.87c-0.21-1.87,0.85-3.07,3.02-3.34
		c3.06-0.39,6.13-0.7,9.19-1.06c6.66-0.78,13.32-1.54,19.96-2.4c0.77-0.1,1.65-0.66,2.16-1.27c6.04-7.23,13.75-10.41,22.98-8.65
		c9.28,1.77,15.4,7.56,18.29,16.58c0.39,1.23,0.91,1.78,2.17,2.06c7.46,1.68,14.9,3.45,22.35,5.2c2.5,0.59,3.2,1.78,2.61,4.33
		c-0.56,2.43-1.13,4.85-1.74,7.47c1.54,0,2.91,0.04,4.28-0.01c1.37-0.05,2.32,0.52,3.02,1.68c2.68,4.47,5.4,8.92,8.06,13.4
		c0.31,0.52,0.49,1.19,0.52,1.81c0.79,15.69,1.53,31.39,2.33,47.08c0.79,15.48,1.63,30.96,2.44,46.43
		c0.24,4.52,0.48,9.04,0.68,13.57c0.12,2.66-0.9,3.67-3.59,3.67c-43.84,0-87.68,0-131.52,0c-2.69,0-3.71-1-3.57-3.68
		c0.58-11.33,1.2-22.66,1.78-33.99c0.48-9.26,0.92-18.51,1.39-27.77c0.59-11.49,1.2-22.98,1.79-34.47
		c0.18-3.46,0.27-6.92,0.48-10.37c0.05-0.82,0.22-1.72,0.62-2.41c2.28-3.9,4.71-7.72,6.96-11.64C44.9,55.43,46.1,53.56,49.26,54.39z
		 M163.65,176.28c-1.76-34.25-3.51-68.32-5.25-102.39c-39.02,0-77.87,0-116.8,0c-1.75,34.18-3.5,68.24-5.25,102.39
		C78.86,176.28,121.14,176.28,163.65,176.28z M69.95,67.98c-0.69-2.91-1.36-5.74-2.02-8.57c-0.5-2.13,0.24-3.36,2.38-3.88
		c4.38-1.07,8.77-2.12,13.16-3.18c4.06-0.98,8.12-1.97,12.27-2.98c-0.67-5.68-1.32-11.2-1.99-16.92
		c-13.66,1.62-27.19,3.22-40.87,4.84c1.23,10.39,2.43,20.54,3.63,30.68C61.11,67.98,65.47,67.98,69.95,67.98z M111.5,39.81
		c-0.26,1.14-0.47,2.07-0.69,3c-0.22,0.96-0.45,1.92-0.73,3.09c1.31-0.31,2.33-0.55,3.34-0.8c2.95-0.72,4.07-0.02,4.78,2.96
		c1.49,6.25,3.02,12.49,4.47,18.75c0.23,0.99,0.65,1.25,1.61,1.24c4.52-0.05,9.05-0.05,13.57,0c0.92,0.01,1.3-0.26,1.49-1.18
		c0.55-2.6,1.21-5.17,1.81-7.75c0.9-3.87,1.78-7.74,2.7-11.73C133.05,44.86,122.37,42.36,111.5,39.81z M75.69,67.92
		c13.95,0,27.7,0,41.54,0c-1.38-5.72-2.74-11.31-4.11-16.99c-13.24,3.19-26.22,6.31-39.25,9.44C74.52,63.04,75.1,65.47,75.69,67.92z
		 M116.89,35.34c-2.97-6.46-7.52-10.21-14.06-11.39c-5.47-0.99-11.61,1.28-13.09,3.35c1.91-0.21,3.81-0.42,5.7-0.64
		c2.02-0.24,3.31,0.7,3.56,2.71c0.47,3.85,0.88,7.71,1.33,11.56c0.28,2.35,0.59,4.69,0.88,6.95c2.07,0.11,2.98-0.66,3.31-2.55
		c0.5-2.92,1.28-5.8,1.97-8.69c0.62-2.59,1.8-3.28,4.43-2.67C112.77,34.39,114.62,34.82,116.89,35.34z M156.03,67.98
		c-1.08-1.82-2.04-3.45-3.02-5.07c-1.96-3.28-1.97-3.28-5.78-3.14c-0.15,0.01-0.31,0.07-0.54,0.12c-0.62,2.66-1.25,5.34-1.89,8.09
		C148.51,67.98,152.12,67.98,156.03,67.98z M50.89,67.98c-0.25-2-0.42-3.84-0.72-5.67c-0.14-0.87-0.49-1.7-0.74-2.55
		c-0.59,0.68-1.29,1.3-1.76,2.06c-1.26,1.98-2.42,4.02-3.69,6.16C46.38,67.98,48.49,67.98,50.89,67.98z"/>
	<path class="st0" d="M117.99,101.92c0-0.8-0.04-1.6,0.01-2.4c0.13-2.34,0.04-4.22-2.5-5.78c-3.11-1.91-3.78-6.07-2.37-9.45
		c1.41-3.37,4.84-5.39,8.6-5.06c3.45,0.3,6.5,3.1,7.26,6.67c0.72,3.39-0.92,7.12-4.07,8.81c-1.07,0.57-1.32,1.21-1.32,2.34
		c0,3.83,0.08,7.68-0.27,11.49c-0.91,10.03-9.44,18.82-19.44,20.27c-13.01,1.9-24.53-5.99-26.97-18.88
		c-0.76-4.03-0.46-8.27-0.51-12.42c-0.02-1.38-0.23-2.23-1.6-2.99c-3.28-1.82-4.66-5.78-3.59-9.39c1.05-3.53,4.29-5.92,8.01-5.91
		c3.68,0.01,6.96,2.48,7.96,6c1.03,3.64-0.41,7.51-3.69,9.36c-1.18,0.67-1.59,1.39-1.52,2.72c0.2,3.93-0.15,7.93,0.47,11.78
		c1.38,8.61,9.42,15.05,18.51,14.46c9.58-0.63,16.66-8,17-17.31c0.05-1.44,0.01-2.88,0.01-4.31
		C117.97,101.92,117.98,101.92,117.99,101.92z M81.67,88.71c0.49-1.49,0.24-2.65-0.99-3.47c-1.1-0.73-2.26-0.66-3.23,0.19
		c-0.99,0.86-1.39,1.96-0.66,3.25C78.81,87.1,79.55,87.09,81.67,88.71z M123.23,88.71c0.66-1.42,0.27-2.52-0.78-3.36
		c-0.96-0.76-2.07-0.82-3.11-0.12c-1.16,0.77-1.5,1.84-1.08,3.19C120.56,87.14,121.31,87.18,123.23,88.71z"/>
</g>
</svg>
